<?xml version="1.0" encoding="utf-8" standalone="no"?>
<!DOCTYPE svg PUBLIC "-//W3C//DTD SVG 1.1//EN"
  "http://www.w3.org/Graphics/SVG/1.1/DTD/svg11.dtd">
<svg xmlns:xlink="http://www.w3.org/1999/xlink" width="132.2pt" height="26.2pt" viewBox="0 0 132.2 26.2" xmlns="http://www.w3.org/2000/svg" version="1.1">
 <metadata>
  <rdf:RDF xmlns:dc="http://purl.org/dc/elements/1.1/" xmlns:cc="http://creativecommons.org/ns#" xmlns:rdf="http://www.w3.org/1999/02/22-rdf-syntax-ns#">
   <cc:Work>
    <dc:type rdf:resource="http://purl.org/dc/dcmitype/StillImage"/>
    <dc:format>image/svg+xml</dc:format>
    <dc:creator>
     <cc:Agent>
      <dc:title>Matplotlib v3.11.1, https://matplotlib.org/</dc:title>
     </cc:Agent>
    </dc:creator>
   </cc:Work>
  </rdf:RDF>
 </metadata>
 <defs>
  <style type="text/css">*{stroke-linejoin: round; stroke-linecap: butt}</style>
 </defs>
 <g id="figure_1">
  <g id="patch_1">
   <path d="M 0 26.2 
L 132.2 26.2 
L 132.2 0 
L 0 0 
L 0 26.2 
z
" style="fill: none; opacity: 0"/>
  </g>
  <g id="text_1">
   <!-- $r_{t\to t+12}\,/\,\mathrm{VIX}_{t}$ -->
   <g style="fill: #14110c" transform="translate(1.6 20.6) scale(0.22 -0.22)">
    <defs>
     <path id="STIXGeneral-Italic-55" d="M 1126 1427 
L 1229 1651 
Q 1446 2131 1830 2534 
Q 2106 2822 2336 2822 
Q 2470 2822 2553 2732 
Q 2637 2643 2637 2496 
Q 2637 2349 2557 2249 
Q 2477 2150 2336 2150 
Q 2214 2150 2112 2317 
Q 2061 2406 2010 2406 
Q 1837 2406 1485 1805 
Q 1267 1434 1136 1104 
Q 1005 774 774 0 
L 288 0 
L 806 1869 
Q 909 2246 909 2394 
Q 909 2560 666 2560 
Q 614 2560 467 2541 
L 467 2650 
L 1459 2822 
L 1478 2810 
L 1126 1427 
z
" transform="scale(0.015625)"/>
     <path id="STIXGeneral-Italic-57" d="M 1894 2739 
L 1862 2534 
L 1325 2534 
L 768 435 
Q 755 384 755 346 
Q 755 243 851 243 
Q 928 243 1030 342 
Q 1133 442 1370 749 
L 1453 704 
Q 1158 256 969 93 
Q 781 -70 538 -70 
Q 243 -70 243 166 
Q 243 230 346 640 
L 845 2534 
L 365 2534 
L 358 2573 
Q 358 2688 570 2733 
Q 730 2771 992 2979 
Q 1254 3187 1421 3437 
Q 1459 3494 1510 3494 
Q 1568 3494 1568 3443 
Q 1568 3411 1562 3398 
L 1382 2739 
L 1894 2739 
z
" transform="scale(0.015625)"/>
     <path id="STIXGeneral-Regular-3ae" d="M 5478 1651 
L 5478 1587 
Q 4742 1274 3955 365 
L 3827 486 
Q 4006 742 4352 1101 
Q 4442 1190 4442 1280 
Q 4442 1408 4275 1408 
L 448 1408 
L 448 1830 
L 4282 1830 
Q 4333 1830 4390 1878 
Q 4448 1926 4448 1971 
Q 4448 2042 4358 2131 
Q 4032 2445 3834 2746 
L 3962 2867 
Q 4755 1952 5478 1651 
z
" transform="scale(0.015625)"/>
     <path id="STIXGeneral-Italic-e" d="M 3776 1408 
L 2374 1408 
L 2374 0 
L 1952 0 
L 1952 1408 
L 550 1408 
L 550 1830 
L 1952 1830 
L 1952 3238 
L 2374 3238 
L 2374 1830 
L 3776 1830 
L 3776 1408 
z
" transform="scale(0.015625)"/>
     <path id="STIXGeneral-Italic-14" d="M 2566 4326 
L 2586 4326 
Q 2618 4326 2618 4282 
Q 2618 4230 2579 4096 
L 1664 774 
Q 1549 365 1549 301 
Q 1549 96 1971 96 
L 2106 96 
L 2106 0 
L 320 0 
L 320 96 
Q 698 122 842 192 
Q 986 262 1037 448 
L 1907 3571 
Q 1958 3763 1958 3802 
Q 1958 4000 1734 4000 
L 1715 4000 
Q 1581 4000 1338 3987 
L 1338 4083 
L 1485 4115 
Q 1792 4179 2070 4230 
Q 2349 4282 2566 4326 
z
" transform="scale(0.015625)"/>
     <path id="STIXGeneral-Italic-15" d="M 646 3245 
L 512 3290 
Q 730 3821 1037 4058 
Q 1389 4326 1856 4326 
Q 2310 4326 2601 4016 
Q 2893 3706 2893 3245 
Q 2893 2925 2704 2630 
Q 2515 2336 1939 1747 
L 736 518 
L 736 486 
L 1894 486 
Q 2170 486 2304 572 
Q 2438 659 2554 902 
L 2662 858 
L 2342 0 
L 77 0 
L 77 109 
L 1421 1542 
Q 2048 2208 2285 2739 
Q 2342 2867 2342 3085 
Q 2342 3430 2144 3644 
Q 1946 3859 1581 3859 
Q 966 3859 646 3245 
z
" transform="scale(0.015625)"/>
     <path id="STIXGeneral-Italic-12" d="M 2470 4262 
L 51 -115 
L -416 -115 
L 2003 4262 
L 2470 4262 
z
" transform="scale(0.015625)"/>
     <path id="STIXGeneral-Regular-39" d="M 4461 4237 
L 4461 4115 
Q 4262 4109 4134 3990 
Q 4006 3872 3872 3533 
L 2451 -70 
L 2355 -70 
L 794 3411 
Q 589 3866 467 3987 
Q 346 4109 102 4115 
L 102 4237 
L 1798 4237 
L 1798 4115 
L 1619 4102 
Q 1331 4083 1331 3904 
Q 1331 3776 1581 3219 
L 2554 1030 
L 3494 3392 
Q 3616 3699 3616 3853 
Q 3616 3898 3606 3933 
Q 3597 3968 3584 3993 
Q 3571 4019 3536 4038 
Q 3501 4058 3481 4067 
Q 3462 4077 3411 4086 
Q 3360 4096 3337 4099 
Q 3315 4102 3248 4108 
Q 3181 4115 3155 4115 
L 3155 4237 
L 4461 4237 
z
" transform="scale(0.015625)"/>
     <path id="STIXGeneral-Regular-2c" d="M 2016 0 
L 115 0 
L 115 122 
Q 518 134 627 240 
Q 736 346 736 717 
L 736 3526 
Q 736 3898 633 3994 
Q 531 4090 115 4115 
L 115 4237 
L 2016 4237 
L 2016 4115 
Q 1613 4096 1501 3993 
Q 1389 3891 1389 3526 
L 1389 717 
Q 1389 358 1504 246 
Q 1619 134 2016 122 
L 2016 0 
z
" transform="scale(0.015625)"/>
     <path id="STIXGeneral-Regular-3b" d="M 4506 0 
L 2611 0 
L 2611 122 
L 2778 134 
Q 3098 154 3098 320 
Q 3098 461 2771 947 
L 2163 1850 
L 1402 896 
Q 1062 474 1062 326 
Q 1062 230 1168 185 
Q 1274 141 1549 122 
L 1549 0 
L 64 0 
L 64 122 
Q 314 147 470 268 
Q 627 390 992 851 
L 1990 2099 
L 1312 3091 
Q 864 3744 665 3913 
Q 467 4083 141 4115 
L 141 4237 
L 2067 4237 
L 2067 4115 
L 1882 4109 
Q 1734 4102 1660 4064 
Q 1587 4026 1587 3923 
Q 1587 3885 1596 3843 
Q 1606 3802 1635 3744 
Q 1664 3686 1689 3638 
Q 1715 3590 1769 3507 
Q 1824 3424 1862 3366 
Q 1901 3309 1984 3190 
Q 2067 3072 2118 2995 
L 2400 2586 
L 3117 3482 
Q 3373 3795 3373 3910 
Q 3373 4019 3283 4064 
Q 3194 4109 2938 4115 
L 2938 4237 
L 4454 4237 
L 4454 4115 
Q 4147 4096 3968 3977 
Q 3789 3859 3482 3482 
L 2566 2349 
L 3795 595 
Q 3981 326 4115 240 
Q 4250 154 4506 122 
L 4506 0 
z
" transform="scale(0.015625)"/>
    </defs>
    <use xlink:href="#STIXGeneral-Italic-55" transform="translate(0 0.40625)"/>
    <use xlink:href="#STIXGeneral-Italic-57" transform="translate(38.899963 -14.59375) scale(0.7)"/>
    <use xlink:href="#STIXGeneral-Regular-3ae" transform="translate(72.359944 -14.59375) scale(0.7)"/>
    <use xlink:href="#STIXGeneral-Italic-57" transform="translate(151.179884 -14.59375) scale(0.7)"/>
    <use xlink:href="#STIXGeneral-Italic-e" transform="translate(184.639865 -14.59375) scale(0.7)"/>
    <use xlink:href="#STIXGeneral-Italic-14" transform="translate(245.889822 -14.59375) scale(0.7)"/>
    <use xlink:href="#STIXGeneral-Italic-15" transform="translate(280.88979 -14.59375) scale(0.7)"/>
    <use xlink:href="#STIXGeneral-Italic-12" transform="translate(337.056758 0.40625)"/>
    <use xlink:href="#STIXGeneral-Regular-39" transform="translate(381.523731 0.40625)"/>
    <use xlink:href="#STIXGeneral-Regular-2c" transform="translate(453.723667 0.40625)"/>
    <use xlink:href="#STIXGeneral-Regular-3b" transform="translate(487.023639 0.40625)"/>
    <use xlink:href="#STIXGeneral-Italic-57" transform="translate(560.798575 -14.59375) scale(0.7)"/>
   </g>
  </g>
 </g>
</svg>
