<?xml version="1.0" encoding="utf-8" standalone="no"?>
<!DOCTYPE svg PUBLIC "-//W3C//DTD SVG 1.1//EN"
  "http://www.w3.org/Graphics/SVG/1.1/DTD/svg11.dtd">
<svg xmlns:xlink="http://www.w3.org/1999/xlink" width="649.1pt" height="269.4368pt" viewBox="0 0 649.1 269.4368" xmlns="http://www.w3.org/2000/svg" version="1.1">
 <metadata>
  <rdf:RDF xmlns:dc="http://purl.org/dc/elements/1.1/" xmlns:cc="http://creativecommons.org/ns#" xmlns:rdf="http://www.w3.org/1999/02/22-rdf-syntax-ns#">
   <cc:Work>
    <dc:type rdf:resource="http://purl.org/dc/dcmitype/StillImage"/>
    <dc:format>image/svg+xml</dc:format>
    <dc:creator>
     <cc:Agent>
      <dc:title>Matplotlib v3.11.1, https://matplotlib.org/</dc:title>
     </cc:Agent>
    </dc:creator>
   </cc:Work>
  </rdf:RDF>
 </metadata>
 <defs>
  <style type="text/css">*{stroke-linejoin: round; stroke-linecap: butt}</style>
 </defs>
 <g id="figure_1">
  <g id="patch_1">
   <path d="M 0 269.4368 
L 649.1 269.4368 
L 649.1 0 
L 0 0 
L 0 269.4368 
z
" style="fill: none"/>
  </g>
  <g id="axes_1">
   <g id="patch_2">
    <path d="M 58.7 221.744 
L 641.9 221.744 
L 641.9 52.112 
L 58.7 52.112 
L 58.7 221.744 
z
" style="fill: none"/>
   </g>
   <g id="matplotlib.axis_1">
    <g id="xtick_1">
     <g id="line2d_1">
      <path d="M 142.014286 221.744 
L 142.014286 52.112 
" clip-path="url(#pf8d5ca4733)" style="fill: none; stroke-dasharray: 2.4,3.2; stroke-dashoffset: 0; stroke: #e9edf2; stroke-width: 0.8"/>
     </g>
     <g id="line2d_2"/>
     <g id="text_1">
      <!-- -0.2 -->
      <g style="fill: #6b7280" transform="translate(134.349286 233.692) scale(0.096 -0.096)">
       <defs>
        <path id="NotoSansSC-Thin-e" d="M 282 1638 
L 282 1862 
L 1811 1862 
L 1811 1638 
L 282 1638 
z
" transform="scale(0.015625)"/>
        <path id="NotoSansSC-Thin-11" d="M 1670 -83 
Q 1261 -83 963 179 
Q 666 442 509 979 
Q 352 1517 352 2336 
Q 352 3149 509 3677 
Q 666 4205 963 4467 
Q 1261 4730 1670 4730 
Q 2080 4730 2371 4467 
Q 2662 4205 2822 3677 
Q 2982 3149 2982 2336 
Q 2982 1517 2822 979 
Q 2662 442 2371 179 
Q 2080 -83 1670 -83 
z
M 1670 128 
Q 1997 128 2240 384 
Q 2483 640 2614 1133 
Q 2746 1626 2746 2336 
Q 2746 3040 2614 3529 
Q 2483 4019 2240 4272 
Q 1997 4525 1670 4525 
Q 1344 4525 1101 4272 
Q 858 4019 723 3529 
Q 589 3040 589 2336 
Q 589 1626 723 1133 
Q 858 640 1101 384 
Q 1344 128 1670 128 
z
" transform="scale(0.015625)"/>
        <path id="NotoSansSC-Thin-f" d="M 736 -83 
Q 640 -83 560 -9 
Q 480 64 480 192 
Q 480 333 560 406 
Q 640 480 736 480 
Q 838 480 918 406 
Q 998 333 998 192 
Q 998 64 918 -9 
Q 838 -83 736 -83 
z
" transform="scale(0.015625)"/>
        <path id="NotoSansSC-Thin-13" d="M 294 0 
L 294 147 
Q 1120 858 1613 1434 
Q 2106 2010 2323 2499 
Q 2541 2989 2541 3424 
Q 2541 3725 2435 3974 
Q 2330 4224 2106 4371 
Q 1882 4518 1523 4518 
Q 1210 4518 931 4352 
Q 653 4186 442 3923 
L 282 4070 
Q 525 4346 829 4538 
Q 1133 4730 1542 4730 
Q 1939 4730 2214 4566 
Q 2490 4403 2637 4112 
Q 2784 3821 2784 3424 
Q 2784 2918 2537 2406 
Q 2291 1894 1820 1347 
Q 1350 800 678 179 
Q 870 192 1062 201 
Q 1254 211 1440 211 
L 3014 211 
L 3014 0 
L 294 0 
z
" transform="scale(0.015625)"/>
       </defs>
       <use xlink:href="#NotoSansSC-Thin-e"/>
       <use xlink:href="#NotoSansSC-Thin-11" transform="translate(32.40625 0)"/>
       <use xlink:href="#NotoSansSC-Thin-f" transform="translate(84.5 0)"/>
       <use xlink:href="#NotoSansSC-Thin-13" transform="translate(107.59375 0)"/>
      </g>
     </g>
    </g>
    <g id="xtick_2">
     <g id="line2d_3">
      <path d="M 253.1 221.744 
L 253.1 52.112 
" clip-path="url(#pf8d5ca4733)" style="fill: none; stroke-dasharray: 2.4,3.2; stroke-dashoffset: 0; stroke: #e9edf2; stroke-width: 0.8"/>
     </g>
     <g id="line2d_4"/>
     <g id="text_2">
      <!-- 0.0 -->
      <g style="fill: #6b7280" transform="translate(246.9905 233.692) scale(0.096 -0.096)">
       <use xlink:href="#NotoSansSC-Thin-11"/>
       <use xlink:href="#NotoSansSC-Thin-f" transform="translate(52.09375 0)"/>
       <use xlink:href="#NotoSansSC-Thin-11" transform="translate(75.1875 0)"/>
      </g>
     </g>
    </g>
    <g id="xtick_3">
     <g id="line2d_5">
      <path d="M 364.185714 221.744 
L 364.185714 52.112 
" clip-path="url(#pf8d5ca4733)" style="fill: none; stroke-dasharray: 2.4,3.2; stroke-dashoffset: 0; stroke: #e9edf2; stroke-width: 0.8"/>
     </g>
     <g id="line2d_6"/>
     <g id="text_3">
      <!-- 0.2 -->
      <g style="fill: #6b7280" transform="translate(358.076214 233.692) scale(0.096 -0.096)">
       <use xlink:href="#NotoSansSC-Thin-11"/>
       <use xlink:href="#NotoSansSC-Thin-f" transform="translate(52.09375 0)"/>
       <use xlink:href="#NotoSansSC-Thin-13" transform="translate(75.1875 0)"/>
      </g>
     </g>
    </g>
    <g id="xtick_4">
     <g id="line2d_7">
      <path d="M 475.271429 221.744 
L 475.271429 52.112 
" clip-path="url(#pf8d5ca4733)" style="fill: none; stroke-dasharray: 2.4,3.2; stroke-dashoffset: 0; stroke: #e9edf2; stroke-width: 0.8"/>
     </g>
     <g id="line2d_8"/>
     <g id="text_4">
      <!-- 0.4 -->
      <g style="fill: #6b7280" transform="translate(469.161929 233.692) scale(0.096 -0.096)">
       <defs>
        <path id="NotoSansSC-Thin-15" d="M 2195 0 
L 2195 3482 
Q 2195 3629 2204 3843 
Q 2214 4058 2227 4205 
L 2195 4205 
Q 2112 4058 2019 3901 
Q 1926 3744 1830 3590 
L 422 1568 
L 3110 1568 
L 3110 1363 
L 115 1363 
L 115 1485 
L 2259 4646 
L 2419 4646 
L 2419 0 
L 2195 0 
z
" transform="scale(0.015625)"/>
       </defs>
       <use xlink:href="#NotoSansSC-Thin-11"/>
       <use xlink:href="#NotoSansSC-Thin-f" transform="translate(52.09375 0)"/>
       <use xlink:href="#NotoSansSC-Thin-15" transform="translate(75.1875 0)"/>
      </g>
     </g>
    </g>
    <g id="xtick_5">
     <g id="line2d_9">
      <path d="M 586.357143 221.744 
L 586.357143 52.112 
" clip-path="url(#pf8d5ca4733)" style="fill: none; stroke-dasharray: 2.4,3.2; stroke-dashoffset: 0; stroke: #e9edf2; stroke-width: 0.8"/>
     </g>
     <g id="line2d_10"/>
     <g id="text_5">
      <!-- 0.6 -->
      <g style="fill: #6b7280" transform="translate(580.247643 233.692) scale(0.096 -0.096)">
       <defs>
        <path id="NotoSansSC-Thin-17" d="M 1837 -83 
Q 1498 -83 1232 67 
Q 966 218 780 509 
Q 595 800 496 1216 
Q 397 1632 397 2170 
Q 397 2886 528 3379 
Q 659 3872 889 4169 
Q 1120 4467 1414 4598 
Q 1709 4730 2029 4730 
Q 2330 4730 2550 4614 
Q 2771 4499 2944 4307 
L 2790 4147 
Q 2643 4333 2444 4425 
Q 2246 4518 2022 4518 
Q 1651 4518 1334 4297 
Q 1018 4077 826 3561 
Q 634 3046 634 2170 
Q 634 1581 762 1120 
Q 890 659 1158 393 
Q 1427 128 1850 128 
Q 2125 128 2336 297 
Q 2547 467 2672 752 
Q 2797 1037 2797 1382 
Q 2797 1741 2694 2025 
Q 2592 2310 2368 2476 
Q 2144 2643 1779 2643 
Q 1523 2643 1209 2470 
Q 896 2298 602 1888 
L 602 2176 
Q 768 2381 957 2531 
Q 1146 2682 1360 2762 
Q 1574 2842 1792 2842 
Q 2189 2842 2467 2675 
Q 2746 2509 2893 2185 
Q 3040 1862 3040 1382 
Q 3040 960 2873 630 
Q 2707 301 2435 109 
Q 2163 -83 1837 -83 
z
" transform="scale(0.015625)"/>
       </defs>
       <use xlink:href="#NotoSansSC-Thin-11"/>
       <use xlink:href="#NotoSansSC-Thin-f" transform="translate(52.09375 0)"/>
       <use xlink:href="#NotoSansSC-Thin-17" transform="translate(75.1875 0)"/>
      </g>
     </g>
    </g>
    <g id="text_6">
     <!-- 毛 Sharpe（等权 1/N，只看方向用法） -->
     <g style="fill: #6b7280" transform="translate(264.330469 247.644) scale(0.1 -0.1)">
      <defs>
       <path id="NotoSansSC-Thin-3fed" d="M 2707 4531 
L 2893 4531 
L 2893 275 
Q 2893 115 2937 25 
Q 2982 -64 3107 -102 
Q 3232 -141 3469 -141 
Q 3539 -141 3721 -141 
Q 3904 -141 4147 -141 
Q 4390 -141 4636 -141 
Q 4883 -141 5084 -141 
Q 5286 -141 5382 -141 
Q 5587 -141 5686 -61 
Q 5786 19 5827 230 
Q 5869 442 5888 832 
Q 5933 800 5987 774 
Q 6042 749 6086 736 
Q 6061 333 6003 99 
Q 5946 -134 5798 -233 
Q 5651 -333 5357 -333 
Q 5312 -333 5126 -333 
Q 4941 -333 4685 -333 
Q 4429 -333 4169 -333 
Q 3910 -333 3724 -333 
Q 3539 -333 3494 -333 
Q 3194 -333 3021 -281 
Q 2848 -230 2777 -96 
Q 2707 38 2707 288 
L 2707 4531 
z
M 4986 5235 
L 5178 5094 
Q 4774 4934 4243 4787 
Q 3712 4640 3101 4515 
Q 2490 4390 1853 4288 
Q 1216 4186 608 4102 
Q 608 4128 598 4153 
Q 589 4179 576 4211 
Q 563 4243 550 4262 
Q 1146 4346 1779 4451 
Q 2413 4557 3014 4681 
Q 3616 4806 4125 4944 
Q 4634 5082 4986 5235 
z
M 627 2906 
L 5472 3597 
L 5504 3418 
L 659 2726 
L 627 2906 
z
M 448 1434 
L 5939 2170 
L 5971 1990 
L 480 1254 
L 448 1434 
z
" transform="scale(0.015625)"/>
       <path id="NotoSansSC-Thin-1" transform="scale(0.015625)"/>
       <path id="NotoSansSC-Thin-34" d="M 1888 -83 
Q 1376 -83 989 115 
Q 602 314 339 621 
L 499 787 
Q 755 493 1113 317 
Q 1472 141 1888 141 
Q 2445 141 2774 416 
Q 3104 691 3104 1126 
Q 3104 1440 2985 1625 
Q 2867 1811 2675 1929 
Q 2483 2048 2246 2150 
L 1536 2470 
Q 1338 2560 1117 2694 
Q 896 2829 742 3049 
Q 589 3270 589 3610 
Q 589 3949 761 4198 
Q 934 4448 1232 4589 
Q 1530 4730 1907 4730 
Q 2330 4730 2653 4566 
Q 2976 4403 3174 4179 
L 3027 4019 
Q 2829 4237 2547 4371 
Q 2266 4506 1907 4506 
Q 1421 4506 1126 4269 
Q 832 4032 832 3635 
Q 832 3347 966 3164 
Q 1101 2982 1293 2876 
Q 1485 2771 1645 2694 
L 2355 2374 
Q 2618 2259 2842 2108 
Q 3066 1958 3203 1731 
Q 3341 1504 3341 1146 
Q 3341 794 3161 515 
Q 2982 237 2656 77 
Q 2330 -83 1888 -83 
z
" transform="scale(0.015625)"/>
       <path id="NotoSansSC-Thin-49" d="M 672 0 
L 672 5082 
L 902 5082 
L 902 3584 
L 902 2822 
Q 1171 3098 1449 3277 
Q 1728 3456 2080 3456 
Q 2598 3456 2848 3139 
Q 3098 2822 3098 2170 
L 3098 0 
L 2867 0 
L 2867 2138 
Q 2867 2694 2678 2969 
Q 2490 3245 2054 3245 
Q 1741 3245 1481 3078 
Q 1222 2912 902 2579 
L 902 0 
L 672 0 
z
" transform="scale(0.015625)"/>
       <path id="NotoSansSC-Thin-42" d="M 1395 -83 
Q 1133 -83 912 13 
Q 691 109 556 310 
Q 422 512 422 832 
Q 422 1395 953 1686 
Q 1485 1978 2624 2106 
Q 2637 2381 2576 2640 
Q 2515 2899 2336 3072 
Q 2157 3245 1805 3245 
Q 1446 3245 1158 3104 
Q 870 2963 704 2835 
L 589 3021 
Q 698 3098 880 3200 
Q 1062 3302 1302 3379 
Q 1542 3456 1818 3456 
Q 2214 3456 2441 3280 
Q 2669 3104 2761 2816 
Q 2854 2528 2854 2182 
L 2854 0 
L 2662 0 
L 2630 448 
L 2611 448 
Q 2355 237 2044 77 
Q 1734 -83 1395 -83 
z
M 1414 128 
Q 1715 128 2003 272 
Q 2291 416 2624 698 
L 2624 1907 
Q 1894 1830 1462 1686 
Q 1030 1542 844 1334 
Q 659 1126 659 838 
Q 659 448 883 288 
Q 1107 128 1414 128 
z
" transform="scale(0.015625)"/>
       <path id="NotoSansSC-Thin-53" d="M 672 0 
L 672 3373 
L 864 3373 
L 902 2739 
L 915 2739 
Q 1082 3046 1325 3251 
Q 1568 3456 1869 3456 
Q 1958 3456 2035 3443 
Q 2112 3430 2195 3386 
L 2138 3174 
Q 2054 3206 1996 3219 
Q 1939 3232 1837 3232 
Q 1613 3232 1357 3030 
Q 1101 2829 902 2330 
L 902 0 
L 672 0 
z
" transform="scale(0.015625)"/>
       <path id="NotoSansSC-Thin-51" d="M 672 -1555 
L 672 3373 
L 864 3373 
L 902 2938 
L 915 2938 
Q 1165 3136 1462 3296 
Q 1760 3456 2074 3456 
Q 2534 3456 2835 3241 
Q 3136 3027 3283 2643 
Q 3430 2259 3430 1734 
Q 3430 1165 3222 755 
Q 3014 346 2675 131 
Q 2336 -83 1933 -83 
Q 1696 -83 1433 29 
Q 1171 141 902 339 
L 902 -294 
L 902 -1555 
L 672 -1555 
z
M 1952 128 
Q 2310 128 2588 333 
Q 2867 538 3027 902 
Q 3187 1267 3187 1734 
Q 3187 2163 3075 2505 
Q 2963 2848 2716 3046 
Q 2470 3245 2054 3245 
Q 1798 3245 1510 3094 
Q 1222 2944 902 2662 
L 902 582 
Q 1203 333 1478 230 
Q 1754 128 1952 128 
z
" transform="scale(0.015625)"/>
       <path id="NotoSansSC-Thin-46" d="M 1920 -83 
Q 1498 -83 1146 128 
Q 794 339 586 732 
Q 378 1126 378 1677 
Q 378 2093 496 2419 
Q 614 2746 822 2979 
Q 1030 3213 1289 3334 
Q 1549 3456 1830 3456 
Q 2221 3456 2505 3277 
Q 2790 3098 2947 2749 
Q 3104 2400 3104 1901 
Q 3104 1850 3104 1795 
Q 3104 1741 3091 1670 
L 621 1670 
Q 621 1229 784 880 
Q 947 531 1241 329 
Q 1536 128 1933 128 
Q 2221 128 2445 211 
Q 2669 294 2861 435 
L 2963 237 
Q 2771 122 2534 19 
Q 2298 -83 1920 -83 
z
M 621 1882 
L 2880 1882 
Q 2880 2566 2592 2905 
Q 2304 3245 1830 3245 
Q 1530 3245 1267 3081 
Q 1005 2918 832 2614 
Q 659 2310 621 1882 
z
" transform="scale(0.015625)"/>
       <path id="NotoSansSC-Thin-743f" d="M 4653 2432 
Q 4653 3002 4797 3523 
Q 4941 4045 5229 4528 
Q 5517 5011 5939 5446 
L 6099 5325 
Q 5683 4909 5408 4438 
Q 5133 3968 4995 3465 
Q 4858 2963 4858 2432 
Q 4858 1907 4995 1401 
Q 5133 896 5408 429 
Q 5683 -38 6099 -461 
L 5939 -582 
Q 5517 -141 5229 339 
Q 4941 819 4797 1344 
Q 4653 1869 4653 2432 
z
" transform="scale(0.015625)"/>
       <path id="NotoSansSC-Thin-4f49" d="M 3098 3917 
L 3290 3917 
L 3290 2278 
L 3098 2278 
L 3098 3917 
z
M 954 3347 
L 5478 3347 
L 5478 3162 
L 954 3162 
L 954 3347 
z
M 333 2381 
L 6099 2381 
L 6099 2189 
L 333 2189 
L 333 2381 
z
M 506 1440 
L 5952 1440 
L 5952 1248 
L 506 1248 
L 506 1440 
z
M 4448 2266 
L 4634 2266 
L 4634 -109 
Q 4634 -250 4592 -314 
Q 4550 -378 4422 -410 
Q 4301 -435 4035 -438 
Q 3770 -442 3334 -442 
Q 3328 -397 3302 -345 
Q 3277 -294 3251 -250 
Q 3526 -256 3737 -259 
Q 3949 -262 4093 -259 
Q 4237 -256 4301 -250 
Q 4390 -243 4419 -214 
Q 4448 -186 4448 -115 
L 4448 2266 
z
M 998 4698 
L 3117 4698 
L 3117 4512 
L 998 4512 
L 998 4698 
z
M 3398 4698 
L 6003 4698 
L 6003 4512 
L 3398 4512 
L 3398 4698 
z
M 1235 5325 
L 1421 5280 
Q 1254 4813 1004 4387 
Q 755 3962 474 3661 
Q 461 3674 429 3693 
Q 397 3712 365 3734 
Q 333 3757 307 3770 
Q 602 4070 842 4476 
Q 1082 4883 1235 5325 
z
M 3674 5325 
L 3859 5286 
Q 3706 4838 3450 4444 
Q 3194 4051 2893 3776 
Q 2880 3795 2848 3817 
Q 2816 3840 2787 3865 
Q 2758 3891 2733 3904 
Q 3034 4166 3283 4534 
Q 3533 4902 3674 5325 
z
M 1523 4570 
L 1715 4602 
Q 1805 4403 1888 4166 
Q 1971 3930 1997 3770 
L 1798 3725 
Q 1773 3891 1696 4128 
Q 1619 4365 1523 4570 
z
M 4058 4576 
L 4224 4640 
Q 4397 4442 4560 4189 
Q 4723 3936 4794 3750 
L 4621 3667 
Q 4557 3859 4397 4112 
Q 4237 4365 4058 4576 
z
M 1491 954 
L 1638 1069 
Q 1869 941 2102 768 
Q 2336 595 2531 416 
Q 2726 237 2842 77 
L 2694 -58 
Q 2579 102 2384 284 
Q 2189 467 1958 640 
Q 1728 813 1491 954 
z
" transform="scale(0.015625)"/>
       <path id="NotoSansSC-Thin-3b57" d="M 2637 4672 
L 5805 4672 
L 5805 4486 
L 2637 4486 
L 2637 4672 
z
M 5741 4672 
L 5773 4672 
L 5811 4685 
L 5926 4640 
Q 5754 3584 5411 2752 
Q 5069 1920 4605 1293 
Q 4141 666 3590 230 
Q 3040 -205 2451 -454 
Q 2438 -435 2419 -403 
Q 2400 -371 2377 -342 
Q 2355 -314 2330 -294 
Q 2912 -64 3453 358 
Q 3994 781 4448 1392 
Q 4902 2003 5238 2809 
Q 5574 3616 5741 4621 
L 5741 4672 
z
M 3110 4576 
Q 3258 3718 3491 3008 
Q 3725 2298 4077 1709 
Q 4429 1120 4944 614 
Q 5459 109 6170 -346 
Q 6125 -371 6086 -406 
Q 6048 -442 6022 -486 
Q 5299 -19 4780 496 
Q 4262 1011 3910 1616 
Q 3558 2221 3331 2944 
Q 3104 3667 2950 4544 
L 3110 4576 
z
M 339 3866 
L 2662 3866 
L 2662 3674 
L 339 3674 
L 339 3866 
z
M 1498 5318 
L 1690 5318 
L 1690 -435 
L 1498 -435 
L 1498 5318 
z
M 1440 3834 
L 1600 3782 
Q 1510 3392 1369 2976 
Q 1229 2560 1056 2160 
Q 883 1760 694 1417 
Q 506 1075 320 845 
Q 301 870 278 899 
Q 256 928 230 953 
Q 205 979 186 992 
Q 365 1216 550 1539 
Q 736 1862 905 2246 
Q 1075 2630 1212 3036 
Q 1350 3443 1440 3834 
z
M 1696 3456 
Q 1754 3392 1866 3251 
Q 1978 3110 2112 2934 
Q 2246 2758 2380 2579 
Q 2515 2400 2620 2259 
Q 2726 2118 2771 2048 
L 2624 1888 
Q 2560 2003 2416 2211 
Q 2272 2419 2102 2652 
Q 1933 2886 1785 3084 
Q 1638 3283 1562 3366 
L 1696 3456 
z
" transform="scale(0.015625)"/>
       <path id="NotoSansSC-Thin-12" d="M 608 0 
L 608 211 
L 1677 211 
L 1677 4211 
L 864 4211 
L 864 4378 
Q 1133 4422 1344 4492 
Q 1555 4563 1702 4646 
L 1901 4646 
L 1901 211 
L 2899 211 
L 2899 0 
L 608 0 
z
" transform="scale(0.015625)"/>
       <path id="NotoSansSC-Thin-10" d="M 58 -1126 
L 2298 5005 
L 2515 5005 
L 282 -1126 
L 58 -1126 
z
" transform="scale(0.015625)"/>
       <path id="NotoSansSC-Thin-2f" d="M 704 0 
L 704 4646 
L 954 4646 
L 3002 1261 
L 3533 346 
L 3565 346 
Q 3546 685 3536 1008 
Q 3526 1331 3526 1658 
L 3526 4646 
L 3757 4646 
L 3757 0 
L 3501 0 
L 1459 3386 
L 928 4301 
L 902 4301 
Q 915 3974 921 3667 
Q 928 3360 928 3027 
L 928 0 
L 704 0 
z
" transform="scale(0.015625)"/>
       <path id="NotoSansSC-Thin-7443" d="M 774 -486 
L 691 -326 
Q 1075 -128 1276 147 
Q 1478 422 1478 870 
L 1286 1318 
L 1626 922 
Q 1562 826 1482 800 
Q 1402 774 1325 774 
Q 1171 774 1075 854 
Q 979 934 979 1114 
Q 979 1299 1084 1379 
Q 1190 1459 1318 1459 
Q 1517 1459 1619 1296 
Q 1722 1133 1722 864 
Q 1722 371 1456 28 
Q 1190 -314 774 -486 
z
" transform="scale(0.015625)"/>
       <path id="NotoSansSC-Thin-2818" d="M 3910 1261 
L 4058 1370 
Q 4410 1114 4778 806 
Q 5146 499 5466 201 
Q 5786 -96 5990 -339 
L 5837 -467 
Q 5638 -230 5321 77 
Q 5005 384 4633 694 
Q 4262 1005 3910 1261 
z
M 2221 1357 
L 2413 1286 
Q 2189 966 1869 643 
Q 1549 320 1184 32 
Q 819 -256 454 -474 
Q 442 -454 419 -428 
Q 397 -403 371 -377 
Q 346 -352 326 -333 
Q 685 -122 1046 156 
Q 1408 435 1715 745 
Q 2022 1056 2221 1357 
z
M 1267 4640 
L 1267 2285 
L 5133 2285 
L 5133 4640 
L 1267 4640 
z
M 1082 4832 
L 5318 4832 
L 5318 2093 
L 1082 2093 
L 1082 4832 
z
" transform="scale(0.015625)"/>
       <path id="NotoSansSC-Thin-4b0f" d="M 1702 2451 
L 5338 2451 
L 5338 -461 
L 5152 -461 
L 5152 2266 
L 1888 2266 
L 1888 -461 
L 1702 -461 
L 1702 2451 
z
M 403 3270 
L 5997 3270 
L 5997 3078 
L 403 3078 
L 403 3270 
z
M 890 4134 
L 5606 4134 
L 5606 3949 
L 890 3949 
L 890 4134 
z
M 1824 1664 
L 5242 1664 
L 5242 1472 
L 1824 1472 
L 1824 1664 
z
M 1824 845 
L 5242 845 
L 5242 659 
L 1824 659 
L 1824 845 
z
M 1824 6 
L 5242 6 
L 5242 -179 
L 1824 -179 
L 1824 6 
z
M 5338 5235 
L 5504 5088 
Q 5101 4992 4547 4921 
Q 3994 4851 3360 4803 
Q 2726 4755 2076 4726 
Q 1427 4698 832 4691 
Q 826 4730 813 4778 
Q 800 4826 781 4864 
Q 1363 4877 2009 4902 
Q 2656 4928 3283 4973 
Q 3910 5018 4444 5082 
Q 4979 5146 5338 5235 
z
M 2816 4890 
L 3014 4838 
Q 2803 4090 2457 3389 
Q 2112 2688 1606 2096 
Q 1101 1504 410 1075 
Q 397 1094 374 1120 
Q 352 1146 329 1171 
Q 307 1197 282 1216 
Q 966 1632 1462 2214 
Q 1958 2797 2291 3481 
Q 2624 4166 2816 4890 
z
" transform="scale(0.015625)"/>
       <path id="NotoSansSC-Thin-39d0" d="M 538 4128 
L 5901 4128 
L 5901 3942 
L 538 3942 
L 538 4128 
z
M 2426 2669 
L 5088 2669 
L 5088 2477 
L 2426 2477 
L 2426 2669 
z
M 5024 2669 
L 5222 2669 
Q 5222 2669 5219 2643 
Q 5216 2618 5216 2589 
Q 5216 2560 5210 2534 
Q 5139 1594 5068 1024 
Q 4998 454 4912 160 
Q 4826 -134 4704 -250 
Q 4627 -333 4534 -358 
Q 4442 -384 4294 -390 
Q 4141 -397 3853 -384 
Q 3565 -371 3238 -346 
Q 3232 -301 3219 -249 
Q 3206 -198 3174 -160 
Q 3533 -192 3837 -201 
Q 4141 -211 4256 -211 
Q 4365 -211 4432 -198 
Q 4499 -186 4550 -141 
Q 4653 -45 4736 246 
Q 4819 538 4889 1114 
Q 4960 1690 5024 2624 
L 5024 2669 
z
M 2413 4051 
L 2611 4051 
Q 2586 3552 2531 3027 
Q 2477 2502 2355 1996 
Q 2234 1491 2010 1030 
Q 1786 570 1421 189 
Q 1056 -192 512 -454 
Q 486 -422 441 -384 
Q 397 -346 365 -320 
Q 902 -70 1260 301 
Q 1619 672 1840 1120 
Q 2061 1568 2176 2064 
Q 2291 2560 2339 3065 
Q 2387 3571 2413 4051 
z
M 2976 5235 
L 3142 5312 
Q 3277 5075 3411 4803 
Q 3546 4531 3610 4333 
L 3424 4250 
Q 3360 4448 3232 4723 
Q 3104 4998 2976 5235 
z
" transform="scale(0.015625)"/>
       <path id="NotoSansSC-Thin-283f" d="M 710 4179 
L 5632 4179 
L 5632 3987 
L 896 3987 
L 896 -454 
L 710 -454 
L 710 4179 
z
M 5549 4179 
L 5734 4179 
L 5734 -64 
Q 5734 -224 5683 -304 
Q 5632 -384 5498 -416 
Q 5357 -442 5065 -445 
Q 4774 -448 4326 -448 
Q 4320 -416 4307 -381 
Q 4294 -346 4278 -304 
Q 4262 -262 4243 -230 
Q 4518 -237 4752 -240 
Q 4986 -243 5149 -240 
Q 5312 -237 5382 -237 
Q 5485 -230 5517 -195 
Q 5549 -160 5549 -70 
L 5549 4179 
z
M 2950 5344 
L 3155 5286 
Q 3034 4986 2883 4640 
Q 2733 4294 2592 4045 
L 2419 4102 
Q 2509 4269 2608 4489 
Q 2707 4710 2800 4937 
Q 2893 5165 2950 5344 
z
M 1952 2912 
L 2138 2912 
L 2138 397 
L 1952 397 
L 1952 2912 
z
M 2061 2912 
L 4454 2912 
L 4454 870 
L 2061 870 
L 2061 1062 
L 4269 1062 
L 4269 2720 
L 2061 2720 
L 2061 2912 
z
" transform="scale(0.015625)"/>
       <path id="NotoSansSC-Thin-492c" d="M 1158 4845 
L 5510 4845 
L 5510 4653 
L 1158 4653 
L 1158 4845 
z
M 1158 3334 
L 5478 3334 
L 5478 3142 
L 1158 3142 
L 1158 3334 
z
M 1101 1786 
L 5478 1786 
L 5478 1600 
L 1101 1600 
L 1101 1786 
z
M 1056 4845 
L 1242 4845 
L 1242 2502 
Q 1242 2157 1213 1766 
Q 1184 1376 1101 979 
Q 1018 582 851 211 
Q 685 -160 403 -480 
Q 390 -454 364 -428 
Q 339 -403 313 -380 
Q 288 -358 262 -346 
Q 531 -38 691 317 
Q 851 672 928 1046 
Q 1005 1421 1030 1792 
Q 1056 2163 1056 2502 
L 1056 4845 
z
M 5395 4845 
L 5581 4845 
L 5581 -45 
Q 5581 -205 5526 -281 
Q 5472 -358 5344 -390 
Q 5222 -416 4944 -419 
Q 4666 -422 4192 -416 
Q 4186 -384 4160 -326 
Q 4134 -269 4109 -224 
Q 4378 -230 4608 -230 
Q 4838 -230 4998 -227 
Q 5158 -224 5222 -224 
Q 5318 -218 5356 -182 
Q 5395 -147 5395 -51 
L 5395 4845 
z
M 3104 4787 
L 3296 4787 
L 3296 -410 
L 3104 -410 
L 3104 4787 
z
" transform="scale(0.015625)"/>
       <path id="NotoSansSC-Thin-40e7" d="M 621 5114 
L 730 5248 
Q 947 5158 1180 5040 
Q 1414 4922 1619 4797 
Q 1824 4672 1958 4563 
L 1850 4390 
Q 1715 4506 1510 4637 
Q 1306 4768 1075 4893 
Q 845 5018 621 5114 
z
M 314 3360 
L 429 3501 
Q 634 3411 854 3292 
Q 1075 3174 1270 3052 
Q 1466 2931 1587 2822 
L 1478 2662 
Q 1350 2771 1155 2896 
Q 960 3021 742 3145 
Q 525 3270 314 3360 
z
M 518 -224 
Q 691 26 908 381 
Q 1126 736 1344 1129 
Q 1562 1523 1741 1882 
L 1875 1760 
Q 1709 1421 1501 1037 
Q 1293 653 1078 291 
Q 864 -70 678 -358 
L 518 -224 
z
M 3949 5318 
L 4134 5318 
L 4134 2355 
L 3949 2355 
L 3949 5318 
z
M 2163 2470 
L 5965 2470 
L 5965 2285 
L 2163 2285 
L 2163 2470 
z
M 2470 4064 
L 5677 4064 
L 5677 3878 
L 2470 3878 
L 2470 4064 
z
M 4550 1408 
L 4691 1472 
Q 4934 1190 5168 857 
Q 5402 525 5594 205 
Q 5786 -115 5888 -358 
L 5734 -442 
Q 5632 -198 5443 125 
Q 5254 448 5020 787 
Q 4787 1126 4550 1408 
z
M 2381 -160 
L 2381 -6 
L 2547 90 
L 5382 429 
Q 5382 390 5395 342 
Q 5408 294 5414 262 
Q 4608 160 4077 96 
Q 3546 32 3222 -13 
Q 2899 -58 2732 -83 
Q 2566 -109 2492 -125 
Q 2419 -141 2381 -160 
z
M 2381 -160 
Q 2381 -134 2368 -96 
Q 2355 -58 2342 -22 
Q 2330 13 2317 38 
Q 2394 51 2496 166 
Q 2598 282 2726 461 
Q 2797 544 2934 739 
Q 3072 934 3245 1203 
Q 3418 1472 3594 1779 
Q 3770 2086 3917 2400 
L 4096 2317 
Q 3866 1882 3613 1456 
Q 3360 1030 3091 652 
Q 2822 275 2554 -32 
L 2554 -38 
Q 2554 -38 2528 -48 
Q 2502 -58 2467 -77 
Q 2432 -96 2406 -118 
Q 2381 -141 2381 -160 
z
" transform="scale(0.015625)"/>
       <path id="NotoSansSC-Thin-7440" d="M 1747 2432 
Q 1747 1869 1603 1344 
Q 1459 819 1171 339 
Q 883 -141 461 -582 
L 301 -461 
Q 717 -38 992 429 
Q 1267 896 1404 1401 
Q 1542 1907 1542 2432 
Q 1542 2963 1404 3465 
Q 1267 3968 992 4438 
Q 717 4909 301 5325 
L 461 5446 
Q 883 5011 1171 4528 
Q 1459 4045 1603 3523 
Q 1747 3002 1747 2432 
z
" transform="scale(0.015625)"/>
      </defs>
      <use xlink:href="#NotoSansSC-Thin-3fed"/>
      <use xlink:href="#NotoSansSC-Thin-1" transform="translate(100 0)"/>
      <use xlink:href="#NotoSansSC-Thin-34" transform="translate(122 0)"/>
      <use xlink:href="#NotoSansSC-Thin-49" transform="translate(178.90625 0)"/>
      <use xlink:href="#NotoSansSC-Thin-42" transform="translate(236.40625 0)"/>
      <use xlink:href="#NotoSansSC-Thin-53" transform="translate(290 0)"/>
      <use xlink:href="#NotoSansSC-Thin-51" transform="translate(323.90625 0)"/>
      <use xlink:href="#NotoSansSC-Thin-46" transform="translate(383.40625 0)"/>
      <use xlink:href="#NotoSansSC-Thin-743f" transform="translate(436.109375 0)"/>
      <use xlink:href="#NotoSansSC-Thin-4f49" transform="translate(536.109375 0)"/>
      <use xlink:href="#NotoSansSC-Thin-3b57" transform="translate(636.109375 0)"/>
      <use xlink:href="#NotoSansSC-Thin-1" transform="translate(736.109375 0)"/>
      <use xlink:href="#NotoSansSC-Thin-12" transform="translate(758.109375 0)"/>
      <use xlink:href="#NotoSansSC-Thin-10" transform="translate(810.203125 0)"/>
      <use xlink:href="#NotoSansSC-Thin-2f" transform="translate(849.796875 0)"/>
      <use xlink:href="#NotoSansSC-Thin-7443" transform="translate(919.390625 0)"/>
      <use xlink:href="#NotoSansSC-Thin-2818" transform="translate(1019.390625 0)"/>
      <use xlink:href="#NotoSansSC-Thin-4b0f" transform="translate(1119.390625 0)"/>
      <use xlink:href="#NotoSansSC-Thin-39d0" transform="translate(1219.390625 0)"/>
      <use xlink:href="#NotoSansSC-Thin-283f" transform="translate(1319.390625 0)"/>
      <use xlink:href="#NotoSansSC-Thin-492c" transform="translate(1419.390625 0)"/>
      <use xlink:href="#NotoSansSC-Thin-40e7" transform="translate(1519.390625 0)"/>
      <use xlink:href="#NotoSansSC-Thin-7440" transform="translate(1619.390625 0)"/>
     </g>
    </g>
   </g>
   <g id="matplotlib.axis_2">
    <g id="ytick_1">
     <g id="line2d_11"/>
     <g id="text_7">
      <!-- 方向反过来 -->
      <g style="fill: #6b7280" transform="translate(7.2 206.311539) scale(0.096 -0.096)">
       <defs>
        <path id="NotoSansSC-Thin-27fc" d="M 1306 3264 
L 5094 3264 
L 5094 3072 
L 1306 3072 
L 1306 3264 
z
M 1229 4742 
L 1421 4742 
L 1421 3066 
Q 1421 2675 1392 2220 
Q 1363 1766 1283 1292 
Q 1203 819 1043 364 
Q 883 -90 614 -480 
Q 602 -454 573 -435 
Q 544 -416 515 -397 
Q 486 -378 461 -365 
Q 723 19 876 457 
Q 1030 896 1107 1353 
Q 1184 1811 1206 2246 
Q 1229 2682 1229 3066 
L 1229 4742 
z
M 5011 3264 
L 5050 3264 
L 5094 3277 
L 5222 3213 
Q 4992 2445 4595 1849 
Q 4198 1254 3683 809 
Q 3168 365 2585 61 
Q 2003 -243 1402 -422 
Q 1389 -397 1369 -365 
Q 1350 -333 1328 -301 
Q 1306 -269 1286 -250 
Q 1869 -90 2441 201 
Q 3014 493 3520 921 
Q 4026 1350 4413 1923 
Q 4800 2496 5011 3213 
L 5011 3264 
z
M 2138 3213 
Q 2573 1856 3504 982 
Q 4435 109 5888 -224 
Q 5869 -243 5846 -272 
Q 5824 -301 5801 -333 
Q 5779 -365 5766 -397 
Q 4794 -154 4048 323 
Q 3302 800 2780 1507 
Q 2259 2214 1958 3155 
L 2138 3213 
z
M 5133 5229 
L 5293 5075 
Q 4934 4986 4460 4909 
Q 3987 4832 3449 4768 
Q 2912 4704 2358 4659 
Q 1805 4614 1286 4582 
Q 1286 4608 1276 4633 
Q 1267 4659 1254 4691 
Q 1242 4723 1229 4742 
Q 1741 4781 2291 4829 
Q 2842 4877 3373 4937 
Q 3904 4998 4358 5072 
Q 4813 5146 5133 5229 
z
" transform="scale(0.015625)"/>
        <path id="NotoSansSC-Thin-63b6" d="M 646 5069 
L 794 5165 
Q 979 5005 1164 4816 
Q 1350 4627 1513 4441 
Q 1677 4256 1779 4115 
L 1626 4000 
Q 1530 4147 1366 4332 
Q 1203 4518 1017 4713 
Q 832 4909 646 5069 
z
M 1574 2886 
L 1574 691 
L 1389 691 
L 1389 2701 
L 365 2701 
L 365 2886 
L 1574 2886 
z
M 1485 787 
Q 1594 787 1680 726 
Q 1766 666 1878 566 
Q 1990 467 2157 346 
Q 2458 141 2845 80 
Q 3232 19 3776 19 
Q 4090 19 4406 25 
Q 4723 32 5024 45 
Q 5325 58 5597 74 
Q 5869 90 6093 102 
Q 6080 83 6067 48 
Q 6054 13 6048 -22 
Q 6042 -58 6035 -90 
Q 5862 -96 5574 -105 
Q 5286 -115 4950 -121 
Q 4614 -128 4304 -134 
Q 3994 -141 3782 -141 
Q 3200 -141 2787 -73 
Q 2374 -6 2061 224 
Q 1882 358 1738 496 
Q 1594 634 1485 634 
Q 1363 634 1209 531 
Q 1056 429 870 243 
Q 685 58 474 -192 
L 346 -70 
Q 678 294 963 540 
Q 1248 787 1485 787 
z
M 2112 4109 
L 5869 4109 
L 5869 3923 
L 2112 3923 
L 2112 4109 
z
M 4685 5312 
L 4883 5312 
L 4883 954 
Q 4883 794 4825 726 
Q 4768 659 4640 627 
Q 4518 602 4249 595 
Q 3981 589 3526 589 
Q 3520 634 3494 691 
Q 3469 749 3443 794 
Q 3706 787 3926 784 
Q 4147 781 4304 784 
Q 4461 787 4518 787 
Q 4608 800 4646 832 
Q 4685 864 4685 947 
L 4685 5312 
z
M 2554 3110 
L 2707 3181 
Q 2880 2982 3056 2745 
Q 3232 2509 3382 2291 
Q 3533 2074 3622 1907 
L 3469 1818 
Q 3379 1984 3228 2211 
Q 3078 2438 2902 2675 
Q 2726 2912 2554 3110 
z
" transform="scale(0.015625)"/>
        <path id="NotoSansSC-Thin-3b79" d="M 397 2432 
L 6016 2432 
L 6016 2246 
L 397 2246 
L 397 2432 
z
M 704 4467 
L 5734 4467 
L 5734 4282 
L 704 4282 
L 704 4467 
z
M 3091 5306 
L 3283 5306 
L 3283 -448 
L 3091 -448 
L 3091 5306 
z
M 4979 4026 
L 5171 3949 
Q 5062 3725 4928 3475 
Q 4794 3226 4656 2995 
Q 4518 2765 4390 2586 
L 4237 2656 
Q 4365 2835 4502 3078 
Q 4640 3322 4768 3574 
Q 4896 3827 4979 4026 
z
M 1312 3923 
L 1478 3981 
Q 1619 3782 1753 3548 
Q 1888 3315 1993 3094 
Q 2099 2874 2144 2701 
L 1971 2624 
Q 1920 2797 1817 3024 
Q 1715 3251 1584 3488 
Q 1453 3725 1312 3923 
z
M 2963 2374 
L 3123 2298 
Q 2893 1926 2579 1571 
Q 2266 1216 1901 896 
Q 1536 576 1161 317 
Q 787 58 429 -115 
Q 416 -90 390 -64 
Q 365 -38 339 -12 
Q 314 13 288 32 
Q 646 192 1024 445 
Q 1402 698 1763 1011 
Q 2125 1325 2435 1673 
Q 2746 2022 2963 2374 
z
M 3411 2381 
Q 3635 2029 3952 1677 
Q 4269 1325 4637 1005 
Q 5005 685 5389 432 
Q 5773 179 6138 13 
Q 6118 -6 6092 -35 
Q 6067 -64 6041 -89 
Q 6016 -115 5997 -141 
Q 5638 32 5254 297 
Q 4870 563 4499 889 
Q 4128 1216 3808 1577 
Q 3488 1939 3258 2304 
L 3411 2381 
z
" transform="scale(0.015625)"/>
       </defs>
       <use xlink:href="#NotoSansSC-Thin-39d0"/>
       <use xlink:href="#NotoSansSC-Thin-283f" transform="translate(100 0)"/>
       <use xlink:href="#NotoSansSC-Thin-27fc" transform="translate(200 0)"/>
       <use xlink:href="#NotoSansSC-Thin-63b6" transform="translate(300 0)"/>
       <use xlink:href="#NotoSansSC-Thin-3b79" transform="translate(400 0)"/>
      </g>
     </g>
    </g>
    <g id="ytick_2">
     <g id="line2d_12"/>
     <g id="text_8">
      <!-- 多空 -->
      <g style="fill: #6b7280" transform="translate(36 162.871846) scale(0.096 -0.096)">
       <defs>
        <path id="NotoSansSC-Thin-2d3d" d="M 2035 3744 
L 2163 3872 
Q 2451 3731 2752 3529 
Q 3053 3328 3219 3162 
L 3078 3021 
Q 2970 3136 2797 3267 
Q 2624 3398 2425 3523 
Q 2227 3648 2035 3744 
z
M 4710 4717 
L 4755 4717 
L 4800 4730 
L 4922 4640 
Q 4614 4128 4131 3699 
Q 3648 3270 3065 2937 
Q 2483 2605 1872 2368 
Q 1261 2131 704 2003 
Q 691 2048 659 2102 
Q 627 2157 595 2189 
Q 1146 2304 1747 2525 
Q 2349 2746 2921 3066 
Q 3494 3386 3961 3792 
Q 4429 4198 4710 4672 
L 4710 4717 
z
M 2560 4717 
L 4768 4717 
L 4768 4531 
L 2560 4531 
L 2560 4717 
z
M 3046 5318 
L 3270 5274 
Q 2931 4806 2358 4316 
Q 1786 3827 998 3443 
Q 986 3469 960 3491 
Q 934 3514 908 3539 
Q 883 3565 858 3578 
Q 1370 3814 1795 4112 
Q 2221 4410 2537 4723 
Q 2854 5037 3046 5318 
z
M 3008 1523 
L 3162 1619 
Q 3341 1491 3529 1337 
Q 3718 1184 3884 1030 
Q 4051 877 4160 755 
L 3994 640 
Q 3891 762 3728 918 
Q 3565 1075 3376 1235 
Q 3187 1395 3008 1523 
z
M 5766 2573 
L 5811 2573 
L 5856 2586 
L 5971 2496 
Q 5638 1805 5072 1296 
Q 4506 787 3792 438 
Q 3078 90 2288 -128 
Q 1498 -346 717 -454 
Q 710 -429 694 -393 
Q 678 -358 662 -323 
Q 646 -288 627 -269 
Q 1395 -173 2172 32 
Q 2950 237 3651 576 
Q 4352 915 4902 1398 
Q 5453 1882 5766 2534 
L 5766 2573 
z
M 3610 2573 
L 5818 2573 
L 5818 2387 
L 3610 2387 
L 3610 2573 
z
M 4077 3149 
L 4301 3104 
Q 4045 2752 3645 2381 
Q 3245 2010 2717 1667 
Q 2189 1325 1536 1056 
Q 1523 1082 1500 1104 
Q 1478 1126 1452 1148 
Q 1427 1171 1402 1190 
Q 2042 1453 2563 1782 
Q 3085 2112 3469 2467 
Q 3853 2822 4077 3149 
z
" transform="scale(0.015625)"/>
        <path id="NotoSansSC-Thin-4e7a" d="M 3110 2029 
L 3302 2029 
L 3302 -173 
L 3110 -173 
L 3110 2029 
z
M 576 4480 
L 5843 4480 
L 5843 3347 
L 5651 3347 
L 5651 4288 
L 768 4288 
L 768 3162 
L 576 3162 
L 576 4480 
z
M 1101 2118 
L 5338 2118 
L 5338 1933 
L 1101 1933 
L 1101 2118 
z
M 544 -51 
L 5882 -51 
L 5882 -237 
L 544 -237 
L 544 -51 
z
M 3763 3622 
L 3872 3731 
Q 4122 3597 4390 3440 
Q 4659 3283 4918 3120 
Q 5178 2957 5402 2803 
Q 5626 2650 5786 2528 
L 5677 2387 
Q 5517 2515 5293 2668 
Q 5069 2822 4809 2992 
Q 4550 3162 4281 3325 
Q 4013 3488 3763 3622 
z
M 2502 3782 
L 2643 3674 
Q 2413 3450 2131 3213 
Q 1850 2976 1514 2755 
Q 1178 2534 781 2362 
L 646 2496 
Q 1254 2739 1718 3094 
Q 2182 3450 2502 3782 
z
M 2854 5274 
L 3040 5338 
Q 3168 5120 3305 4854 
Q 3443 4589 3520 4416 
L 3334 4326 
Q 3258 4512 3123 4781 
Q 2989 5050 2854 5274 
z
" transform="scale(0.015625)"/>
       </defs>
       <use xlink:href="#NotoSansSC-Thin-2d3d"/>
       <use xlink:href="#NotoSansSC-Thin-4e7a" transform="translate(100 0)"/>
      </g>
     </g>
    </g>
    <g id="ytick_3">
     <g id="line2d_13"/>
     <g id="text_9">
      <!-- 永远做多 -->
      <g style="fill: #6b7280" transform="translate(16.8 119.432154) scale(0.096 -0.096)">
       <defs>
        <path id="NotoSansSC-Thin-404a" d="M 390 2758 
L 2317 2758 
L 2317 2573 
L 390 2573 
L 390 2758 
z
M 1165 3974 
L 3206 3974 
L 3206 3789 
L 1165 3789 
L 1165 3974 
z
M 3277 3674 
Q 3501 2848 3891 2150 
Q 4282 1453 4835 941 
Q 5389 429 6093 166 
Q 6074 147 6048 121 
Q 6022 96 6000 67 
Q 5978 38 5958 13 
Q 5254 301 4697 822 
Q 4141 1344 3744 2061 
Q 3347 2778 3110 3635 
L 3277 3674 
z
M 5690 3565 
L 5862 3456 
Q 5600 3194 5273 2906 
Q 4947 2618 4611 2349 
Q 4275 2080 3974 1875 
L 3840 1978 
Q 4134 2182 4473 2457 
Q 4813 2733 5136 3024 
Q 5459 3315 5690 3565 
z
M 3104 3974 
L 3296 3974 
L 3296 -102 
Q 3296 -243 3251 -307 
Q 3206 -371 3098 -403 
Q 2989 -429 2755 -432 
Q 2522 -435 2125 -435 
Q 2118 -403 2096 -345 
Q 2074 -288 2048 -243 
Q 2272 -250 2461 -253 
Q 2650 -256 2781 -253 
Q 2912 -250 2963 -250 
Q 3046 -243 3075 -214 
Q 3104 -186 3104 -102 
L 3104 3974 
z
M 1837 5158 
L 1926 5312 
Q 2234 5235 2570 5136 
Q 2906 5037 3229 4921 
Q 3552 4806 3833 4684 
Q 4115 4563 4314 4454 
L 4237 4269 
Q 4032 4378 3750 4499 
Q 3469 4621 3145 4742 
Q 2822 4864 2486 4969 
Q 2150 5075 1837 5158 
z
M 2240 2758 
L 2285 2758 
L 2330 2771 
L 2445 2714 
Q 2266 2067 1952 1545 
Q 1638 1024 1244 627 
Q 851 230 422 -32 
Q 403 -6 380 19 
Q 358 45 329 73 
Q 301 102 275 122 
Q 704 365 1091 742 
Q 1478 1120 1779 1616 
Q 2080 2112 2240 2707 
L 2240 2758 
z
" transform="scale(0.015625)"/>
        <path id="NotoSansSC-Thin-63cb" d="M 1478 3027 
L 1478 410 
L 1293 410 
L 1293 2835 
L 314 2835 
L 314 3027 
L 1478 3027 
z
M 467 4762 
L 589 4890 
Q 787 4768 1004 4621 
Q 1222 4474 1417 4336 
Q 1613 4198 1747 4096 
L 1619 3942 
Q 1491 4051 1292 4195 
Q 1094 4339 880 4489 
Q 666 4640 467 4762 
z
M 1389 557 
Q 1549 557 1696 438 
Q 1843 320 2125 134 
Q 2451 -70 2851 -134 
Q 3251 -198 3795 -198 
Q 4096 -198 4400 -192 
Q 4704 -186 5005 -173 
Q 5306 -160 5581 -144 
Q 5856 -128 6099 -109 
Q 6086 -134 6070 -169 
Q 6054 -205 6048 -243 
Q 6042 -282 6035 -320 
Q 5888 -326 5619 -339 
Q 5350 -352 5024 -358 
Q 4698 -365 4374 -371 
Q 4051 -378 3795 -378 
Q 3213 -378 2787 -301 
Q 2362 -224 2022 -6 
Q 1843 122 1673 256 
Q 1504 390 1389 390 
Q 1274 390 1130 281 
Q 986 173 816 -9 
Q 646 -192 461 -429 
L 320 -294 
Q 627 70 892 313 
Q 1158 557 1389 557 
z
M 1952 3450 
L 6022 3450 
L 6022 3264 
L 1952 3264 
L 1952 3450 
z
M 2381 4851 
L 5658 4851 
L 5658 4659 
L 2381 4659 
L 2381 4851 
z
M 3200 3347 
L 3386 3347 
Q 3366 2778 3302 2323 
Q 3238 1869 3094 1523 
Q 2950 1178 2691 922 
Q 2432 666 2022 486 
Q 2010 506 1984 531 
Q 1958 557 1932 585 
Q 1907 614 1882 627 
Q 2285 794 2534 1037 
Q 2784 1280 2925 1609 
Q 3066 1939 3123 2371 
Q 3181 2803 3200 3347 
z
M 4422 3347 
L 4614 3347 
L 4614 947 
Q 4614 845 4656 809 
Q 4698 774 4845 774 
Q 4890 774 5040 774 
Q 5190 774 5347 774 
Q 5504 774 5562 774 
Q 5658 774 5706 832 
Q 5754 890 5773 1078 
Q 5792 1267 5798 1645 
Q 5824 1626 5856 1606 
Q 5888 1587 5920 1577 
Q 5952 1568 5978 1555 
Q 5971 1171 5939 960 
Q 5907 749 5824 665 
Q 5741 582 5574 582 
Q 5549 582 5443 582 
Q 5338 582 5210 582 
Q 5082 582 4979 582 
Q 4877 582 4845 582 
Q 4685 582 4592 611 
Q 4499 640 4460 720 
Q 4422 800 4422 947 
L 4422 3347 
z
" transform="scale(0.015625)"/>
        <path id="NotoSansSC-Thin-2491" d="M 2733 5248 
L 2925 5248 
L 2925 2317 
L 2733 2317 
L 2733 5248 
z
M 1696 3981 
L 3930 3981 
L 3930 3795 
L 1696 3795 
L 1696 3981 
z
M 1939 2406 
L 2125 2406 
L 2125 -128 
L 1939 -128 
L 1939 2406 
z
M 2029 2406 
L 3725 2406 
L 3725 256 
L 2029 256 
L 2029 448 
L 3539 448 
L 3539 2221 
L 2029 2221 
L 2029 2406 
z
M 4499 5318 
L 4685 5286 
Q 4595 4749 4470 4243 
Q 4346 3738 4186 3293 
Q 4026 2848 3821 2502 
Q 3802 2515 3766 2531 
Q 3731 2547 3699 2566 
Q 3667 2586 3642 2592 
Q 3853 2931 4013 3369 
Q 4173 3808 4294 4307 
Q 4416 4806 4499 5318 
z
M 4326 4013 
L 6086 4013 
L 6086 3827 
L 4275 3827 
L 4326 4013 
z
M 5613 3949 
L 5811 3923 
Q 5677 2835 5417 2003 
Q 5158 1171 4707 560 
Q 4256 -51 3539 -486 
Q 3526 -467 3497 -438 
Q 3469 -410 3440 -384 
Q 3411 -358 3386 -339 
Q 4109 64 4553 662 
Q 4998 1261 5244 2077 
Q 5491 2893 5613 3949 
z
M 4333 3872 
Q 4384 3315 4493 2713 
Q 4602 2112 4803 1542 
Q 5005 973 5344 489 
Q 5683 6 6195 -320 
Q 6176 -339 6150 -364 
Q 6125 -390 6099 -419 
Q 6074 -448 6054 -474 
Q 5536 -122 5197 368 
Q 4858 858 4653 1424 
Q 4448 1990 4342 2576 
Q 4237 3162 4186 3699 
L 4333 3872 
z
M 1638 5261 
L 1818 5222 
Q 1638 4678 1398 4163 
Q 1158 3648 880 3197 
Q 602 2746 294 2387 
Q 282 2406 256 2432 
Q 230 2458 204 2486 
Q 179 2515 154 2534 
Q 454 2874 729 3312 
Q 1005 3750 1238 4249 
Q 1472 4749 1638 5261 
z
M 1114 3878 
L 1293 4058 
L 1299 4045 
L 1299 -454 
L 1114 -454 
L 1114 3878 
z
" transform="scale(0.015625)"/>
       </defs>
       <use xlink:href="#NotoSansSC-Thin-404a"/>
       <use xlink:href="#NotoSansSC-Thin-63cb" transform="translate(100 0)"/>
       <use xlink:href="#NotoSansSC-Thin-2491" transform="translate(200 0)"/>
       <use xlink:href="#NotoSansSC-Thin-2d3d" transform="translate(300 0)"/>
      </g>
     </g>
    </g>
    <g id="ytick_4">
     <g id="line2d_14"/>
     <g id="text_10">
      <!-- 只做多 -->
      <g style="fill: #6b7280" transform="translate(26.4 75.992461) scale(0.096 -0.096)">
       <use xlink:href="#NotoSansSC-Thin-2818"/>
       <use xlink:href="#NotoSansSC-Thin-2491" transform="translate(100 0)"/>
       <use xlink:href="#NotoSansSC-Thin-2d3d" transform="translate(200 0)"/>
      </g>
     </g>
    </g>
   </g>
   <g id="patch_3">
    <path d="M 253.1 214.033455 
L 129.794857 214.033455 
L 129.794857 190.141624 
L 253.1 190.141624 
z
" clip-path="url(#pf8d5ca4733)" style="fill: #8a94a6"/>
   </g>
   <g id="patch_4">
    <path d="M 253.1 170.593762 
L 335.858857 170.593762 
L 335.858857 146.701931 
L 253.1 146.701931 
z
" clip-path="url(#pf8d5ca4733)" style="fill: #b23a1c"/>
   </g>
   <g id="patch_5">
    <path d="M 253.1 127.154069 
L 529.703429 127.154069 
L 529.703429 103.262238 
L 253.1 103.262238 
z
" clip-path="url(#pf8d5ca4733)" style="fill: #b23a1c"/>
   </g>
   <g id="patch_6">
    <path d="M 253.1 83.714376 
L 564.695429 83.714376 
L 564.695429 59.822545 
L 253.1 59.822545 
z
" clip-path="url(#pf8d5ca4733)" style="fill: #b23a1c"/>
   </g>
   <g id="line2d_15">
    <path d="M 253.1 221.744 
L 253.1 52.112 
" clip-path="url(#pf8d5ca4733)" style="fill: none; stroke: #d5dae1; stroke-linecap: square"/>
   </g>
   <g id="patch_7">
    <path d="M 58.7 221.744 
L 641.9 221.744 
" style="fill: none; stroke: #d5dae1; stroke-width: 0.9; stroke-linejoin: miter; stroke-linecap: square"/>
   </g>
   <g id="text_11">
    <!-- 把方向反过来是 -0.22（符号约定自检通过）——说明问题在短腿，不在信号 -->
    <g style="fill: #6b7280" transform="translate(58.7 37.271688) scale(0.096 -0.096)">
     <defs>
      <path id="NotoSansSC-Thin-36a6" d="M 2637 4947 
L 2810 4947 
L 2810 358 
Q 2810 192 2858 93 
Q 2906 -6 3040 -48 
Q 3174 -90 3418 -90 
Q 3488 -90 3683 -90 
Q 3878 -90 4131 -90 
Q 4384 -90 4640 -90 
Q 4896 -90 5107 -90 
Q 5318 -90 5421 -90 
Q 5638 -90 5744 -3 
Q 5850 83 5891 307 
Q 5933 531 5958 934 
Q 5997 909 6048 886 
Q 6099 864 6144 851 
Q 6118 435 6060 192 
Q 6003 -51 5849 -153 
Q 5696 -256 5382 -256 
Q 5338 -256 5142 -256 
Q 4947 -256 4681 -256 
Q 4416 -256 4147 -256 
Q 3878 -256 3686 -256 
Q 3494 -256 3450 -256 
Q 3136 -256 2960 -205 
Q 2784 -154 2710 -19 
Q 2637 115 2637 365 
L 2637 4947 
z
M 2739 4947 
L 5734 4947 
L 5734 1766 
L 5549 1766 
L 5549 4762 
L 2739 4762 
L 2739 4947 
z
M 2733 2394 
L 5670 2394 
L 5670 2208 
L 2733 2208 
L 2733 2394 
z
M 4083 4909 
L 4269 4909 
L 4269 2310 
L 4083 2310 
L 4083 4909 
z
M 307 1792 
Q 550 1869 867 1971 
Q 1184 2074 1539 2192 
Q 1894 2310 2259 2426 
L 2291 2240 
Q 1786 2074 1286 1904 
Q 787 1734 397 1600 
L 307 1792 
z
M 403 3936 
L 2182 3936 
L 2182 3744 
L 403 3744 
L 403 3936 
z
M 1254 5312 
L 1446 5312 
L 1446 -154 
Q 1446 -275 1404 -332 
Q 1363 -390 1280 -416 
Q 1197 -442 1043 -448 
Q 890 -454 627 -448 
Q 621 -416 598 -361 
Q 576 -307 550 -269 
Q 774 -275 937 -275 
Q 1101 -275 1152 -269 
Q 1254 -269 1254 -160 
L 1254 5312 
z
" transform="scale(0.015625)"/>
      <path id="NotoSansSC-Thin-3a46" d="M 378 2406 
L 6029 2406 
L 6029 2221 
L 378 2221 
L 378 2406 
z
M 3200 1274 
L 5600 1274 
L 5600 1088 
L 3200 1088 
L 3200 1274 
z
M 3142 2368 
L 3334 2368 
L 3334 -115 
L 3142 -115 
L 3142 2368 
z
M 1619 1312 
Q 1837 730 2201 422 
Q 2566 115 3094 3 
Q 3622 -109 4320 -109 
Q 4358 -109 4531 -109 
Q 4704 -109 4944 -109 
Q 5184 -109 5424 -109 
Q 5664 -109 5849 -109 
Q 6035 -109 6099 -109 
Q 6080 -134 6061 -169 
Q 6042 -205 6029 -240 
Q 6016 -275 6010 -301 
L 5626 -301 
L 4326 -301 
Q 3750 -301 3299 -237 
Q 2848 -173 2499 -6 
Q 2150 160 1894 457 
Q 1638 755 1459 1222 
L 1619 1312 
z
M 1626 1939 
L 1818 1914 
Q 1670 1107 1328 518 
Q 986 -70 461 -454 
Q 448 -435 422 -409 
Q 397 -384 365 -358 
Q 333 -333 307 -320 
Q 838 38 1161 608 
Q 1485 1178 1626 1939 
z
M 1312 3917 
L 1312 3187 
L 5043 3187 
L 5043 3917 
L 1312 3917 
z
M 1312 4819 
L 1312 4102 
L 5043 4102 
L 5043 4819 
L 1312 4819 
z
M 1126 5005 
L 5235 5005 
L 5235 3002 
L 1126 3002 
L 1126 5005 
z
" transform="scale(0.015625)"/>
      <path id="NotoSansSC-Thin-4f26" d="M 2035 2643 
L 6016 2643 
L 6016 2451 
L 2035 2451 
L 2035 2643 
z
M 1754 3462 
L 1933 3411 
Q 1754 3040 1526 2675 
Q 1299 2310 1046 1993 
Q 794 1677 531 1427 
Q 518 1440 486 1462 
Q 454 1485 422 1507 
Q 390 1530 365 1542 
Q 634 1786 886 2096 
Q 1139 2406 1360 2755 
Q 1581 3104 1754 3462 
z
M 4819 3418 
L 5005 3418 
L 5005 -83 
Q 5005 -230 4953 -297 
Q 4902 -365 4781 -397 
Q 4659 -422 4390 -425 
Q 4122 -429 3667 -429 
Q 3661 -390 3638 -336 
Q 3616 -282 3584 -237 
Q 3853 -243 4073 -243 
Q 4294 -243 4448 -240 
Q 4602 -237 4659 -237 
Q 4755 -230 4787 -201 
Q 4819 -173 4819 -90 
L 4819 3418 
z
M 1030 4640 
L 2982 4640 
L 2982 4454 
L 1030 4454 
L 1030 4640 
z
M 3430 4640 
L 5888 4640 
L 5888 4454 
L 3430 4454 
L 3430 4640 
z
M 1235 5325 
L 1427 5286 
Q 1318 4941 1168 4605 
Q 1018 4269 845 3974 
Q 672 3680 480 3450 
Q 467 3462 435 3484 
Q 403 3507 371 3529 
Q 339 3552 314 3565 
Q 614 3898 851 4358 
Q 1088 4819 1235 5325 
z
M 3661 5325 
L 3846 5286 
Q 3699 4755 3446 4288 
Q 3194 3821 2880 3494 
Q 2867 3507 2835 3529 
Q 2803 3552 2771 3577 
Q 2739 3603 2714 3616 
Q 3034 3930 3277 4374 
Q 3520 4819 3661 5325 
z
M 1638 4506 
L 1818 4538 
Q 1926 4314 2044 4038 
Q 2163 3763 2234 3597 
L 2054 3533 
Q 1984 3712 1865 3990 
Q 1747 4269 1638 4506 
z
M 4102 4506 
L 4269 4563 
Q 4416 4358 4576 4108 
Q 4736 3859 4819 3693 
L 4646 3622 
Q 4563 3789 4406 4041 
Q 4250 4294 4102 4506 
z
M 2586 1907 
L 2746 1984 
Q 2899 1773 3056 1526 
Q 3213 1280 3350 1056 
Q 3488 832 3578 672 
L 3411 570 
Q 3328 736 3187 966 
Q 3046 1197 2889 1446 
Q 2733 1696 2586 1907 
z
M 1274 2554 
L 1466 2739 
L 1466 2733 
L 1466 -454 
L 1274 -454 
L 1274 2554 
z
" transform="scale(0.015625)"/>
      <path id="NotoSansSC-Thin-2825" d="M 1459 4826 
L 1459 3686 
L 4941 3686 
L 4941 4826 
L 1459 4826 
z
M 1267 5011 
L 5133 5011 
L 5133 3501 
L 1267 3501 
L 1267 5011 
z
M 467 2746 
L 5914 2746 
L 5914 2560 
L 467 2560 
L 467 2746 
z
M 1594 1613 
L 4986 1613 
L 4986 1427 
L 1594 1427 
L 1594 1613 
z
M 4922 1613 
L 5114 1613 
Q 5114 1613 5110 1590 
Q 5107 1568 5107 1539 
Q 5107 1510 5101 1491 
Q 5011 915 4918 544 
Q 4826 173 4730 -32 
Q 4634 -237 4512 -339 
Q 4429 -403 4339 -422 
Q 4250 -442 4102 -448 
Q 3962 -448 3670 -441 
Q 3379 -435 3040 -410 
Q 3034 -365 3021 -313 
Q 3008 -262 2976 -218 
Q 3334 -256 3641 -265 
Q 3949 -275 4070 -275 
Q 4198 -275 4262 -265 
Q 4326 -256 4371 -218 
Q 4480 -134 4573 67 
Q 4666 269 4749 637 
Q 4832 1005 4922 1574 
L 4922 1613 
z
M 1933 2643 
L 2118 2611 
Q 2061 2413 1987 2198 
Q 1914 1984 1837 1785 
Q 1760 1587 1696 1434 
L 1478 1434 
Q 1555 1600 1635 1808 
Q 1715 2016 1792 2233 
Q 1869 2451 1933 2643 
z
" transform="scale(0.015625)"/>
      <path id="NotoSansSC-Thin-52a4" d="M 429 1267 
Q 422 1293 409 1331 
Q 397 1370 384 1408 
Q 371 1446 358 1472 
Q 448 1485 573 1606 
Q 698 1728 851 1901 
Q 941 1990 1110 2188 
Q 1280 2387 1497 2665 
Q 1715 2944 1942 3267 
Q 2170 3590 2368 3917 
L 2554 3821 
Q 2099 3136 1603 2505 
Q 1107 1875 608 1402 
L 608 1395 
Q 608 1395 582 1385 
Q 557 1376 518 1357 
Q 480 1338 454 1315 
Q 429 1293 429 1267 
z
M 429 1267 
L 429 1446 
L 582 1536 
L 2624 1856 
Q 2624 1811 2624 1763 
Q 2624 1715 2630 1683 
Q 1914 1562 1491 1491 
Q 1069 1421 854 1379 
Q 640 1338 553 1312 
Q 467 1286 429 1267 
z
M 390 2784 
Q 384 2810 371 2848 
Q 358 2886 345 2928 
Q 333 2970 320 2995 
Q 397 3008 489 3120 
Q 582 3232 698 3398 
Q 762 3482 886 3674 
Q 1011 3866 1164 4125 
Q 1318 4384 1475 4681 
Q 1632 4979 1760 5280 
L 1946 5197 
Q 1741 4781 1513 4368 
Q 1286 3955 1049 3587 
Q 813 3219 563 2925 
L 563 2918 
Q 563 2918 537 2905 
Q 512 2893 477 2873 
Q 442 2854 416 2832 
Q 390 2810 390 2784 
z
M 390 2784 
L 390 2957 
L 538 3040 
L 1952 3194 
Q 1946 3149 1946 3097 
Q 1946 3046 1952 3014 
Q 1459 2957 1164 2918 
Q 870 2880 713 2857 
Q 557 2835 489 2819 
Q 422 2803 390 2784 
z
M 326 205 
Q 614 262 992 339 
Q 1370 416 1802 509 
Q 2234 602 2675 691 
L 2688 518 
Q 2054 378 1443 243 
Q 832 109 371 6 
L 326 205 
z
M 3392 4102 
L 5715 4102 
L 5715 3917 
L 3392 3917 
L 3392 4102 
z
M 5632 4102 
L 5824 4102 
Q 5824 4102 5824 4073 
Q 5824 4045 5824 4013 
Q 5824 3981 5824 3962 
Q 5786 2848 5747 2086 
Q 5709 1325 5664 848 
Q 5619 371 5555 115 
Q 5491 -141 5402 -250 
Q 5318 -346 5228 -381 
Q 5139 -416 4992 -416 
Q 4851 -422 4611 -416 
Q 4371 -410 4109 -390 
Q 4102 -339 4089 -288 
Q 4077 -237 4045 -192 
Q 4358 -218 4614 -224 
Q 4870 -230 4973 -230 
Q 5062 -237 5123 -217 
Q 5184 -198 5229 -141 
Q 5306 -51 5366 201 
Q 5427 454 5475 937 
Q 5523 1421 5561 2182 
Q 5600 2944 5632 4045 
L 5632 4102 
z
M 3770 5312 
L 3962 5274 
Q 3834 4819 3667 4387 
Q 3501 3955 3305 3577 
Q 3110 3200 2886 2899 
Q 2874 2912 2842 2934 
Q 2810 2957 2778 2976 
Q 2746 2995 2720 3008 
Q 2950 3296 3145 3667 
Q 3341 4038 3497 4457 
Q 3654 4877 3770 5312 
z
M 3322 2848 
L 3462 2957 
Q 3712 2739 3961 2480 
Q 4211 2221 4419 1968 
Q 4627 1715 4749 1510 
L 4602 1395 
Q 4480 1600 4272 1853 
Q 4064 2106 3817 2368 
Q 3571 2630 3322 2848 
z
" transform="scale(0.015625)"/>
      <path id="NotoSansSC-Thin-2fbc" d="M 1274 3334 
L 5203 3334 
L 5203 3142 
L 1274 3142 
L 1274 3334 
z
M 3194 1811 
L 5344 1811 
L 5344 1626 
L 3194 1626 
L 3194 1811 
z
M 3091 3290 
L 3283 3290 
L 3283 -102 
L 3091 -64 
L 3091 3290 
z
M 1581 2406 
L 1773 2381 
Q 1632 1421 1315 710 
Q 998 0 461 -474 
Q 448 -454 419 -432 
Q 390 -410 358 -387 
Q 326 -365 301 -352 
Q 851 96 1155 793 
Q 1459 1491 1581 2406 
z
M 1568 1555 
Q 1754 1018 2048 682 
Q 2342 346 2732 166 
Q 3123 -13 3600 -80 
Q 4077 -147 4627 -147 
Q 4666 -147 4810 -147 
Q 4954 -147 5146 -147 
Q 5338 -147 5536 -147 
Q 5734 -147 5888 -147 
Q 6042 -147 6099 -147 
Q 6080 -173 6061 -208 
Q 6042 -243 6029 -278 
Q 6016 -314 6010 -339 
L 5702 -339 
L 4621 -339 
Q 4032 -339 3533 -265 
Q 3034 -192 2634 0 
Q 2234 192 1926 547 
Q 1619 902 1414 1466 
L 1568 1555 
z
M 602 4550 
L 5798 4550 
L 5798 3360 
L 5606 3360 
L 5606 4358 
L 794 4358 
L 794 3360 
L 602 3360 
L 602 4550 
z
M 2835 5280 
L 3014 5331 
Q 3123 5171 3238 4972 
Q 3354 4774 3398 4634 
L 3219 4570 
Q 3168 4710 3059 4912 
Q 2950 5114 2835 5280 
z
" transform="scale(0.015625)"/>
      <path id="NotoSansSC-Thin-55e4" d="M 1293 2957 
L 5248 2957 
L 5248 2765 
L 1293 2765 
L 1293 2957 
z
M 1293 1542 
L 5248 1542 
L 5248 1357 
L 1293 1357 
L 1293 1542 
z
M 1293 122 
L 5248 122 
L 5248 -70 
L 1293 -70 
L 1293 122 
z
M 1165 4397 
L 5344 4397 
L 5344 -416 
L 5158 -416 
L 5158 4211 
L 1357 4211 
L 1357 -467 
L 1165 -467 
L 1165 4397 
z
M 3091 5331 
L 3277 5280 
Q 3181 5024 3075 4745 
Q 2970 4467 2861 4262 
L 2707 4301 
Q 2771 4442 2844 4627 
Q 2918 4813 2985 4998 
Q 3053 5184 3091 5331 
z
" transform="scale(0.015625)"/>
      <path id="NotoSansSC-Thin-3cd4" d="M 384 4038 
L 2310 4038 
L 2310 3853 
L 384 3853 
L 384 4038 
z
M 1293 5318 
L 1478 5318 
L 1478 -435 
L 1293 -435 
L 1293 5318 
z
M 1280 3987 
L 1453 3949 
Q 1376 3571 1264 3155 
Q 1152 2739 1011 2339 
Q 870 1939 713 1596 
Q 557 1254 397 1011 
Q 378 1037 352 1065 
Q 326 1094 300 1120 
Q 275 1146 250 1158 
Q 403 1389 556 1715 
Q 710 2042 851 2426 
Q 992 2810 1104 3213 
Q 1216 3616 1280 3987 
z
M 1466 3552 
Q 1510 3482 1612 3306 
Q 1715 3130 1836 2925 
Q 1958 2720 2057 2544 
Q 2157 2368 2195 2291 
L 2054 2125 
Q 2010 2234 1910 2419 
Q 1811 2605 1699 2816 
Q 1587 3027 1488 3203 
Q 1389 3379 1338 3456 
L 1466 3552 
z
M 4128 5088 
Q 4282 4813 4509 4521 
Q 4736 4230 5001 3948 
Q 5267 3667 5548 3427 
Q 5830 3187 6086 3008 
Q 6061 2995 6035 2972 
Q 6010 2950 5987 2928 
Q 5965 2906 5946 2880 
Q 5600 3136 5225 3488 
Q 4851 3840 4524 4237 
Q 4198 4634 3987 5005 
L 4128 5088 
z
M 4083 5331 
L 4269 5280 
Q 4045 4768 3725 4320 
Q 3405 3872 3024 3501 
Q 2643 3130 2221 2848 
Q 2208 2867 2182 2896 
Q 2157 2925 2131 2953 
Q 2106 2982 2086 3002 
Q 2509 3264 2886 3619 
Q 3264 3974 3571 4409 
Q 3878 4845 4083 5331 
z
M 3014 3309 
L 5075 3309 
L 5075 3117 
L 3014 3117 
L 3014 3309 
z
M 2566 2330 
L 2733 2368 
Q 2848 2125 2944 1843 
Q 3040 1562 3113 1293 
Q 3187 1024 3219 813 
L 3046 768 
Q 3021 979 2947 1248 
Q 2874 1517 2774 1798 
Q 2675 2080 2566 2330 
z
M 3827 2490 
L 3994 2515 
Q 4064 2272 4121 1990 
Q 4179 1709 4224 1443 
Q 4269 1178 4282 966 
L 4102 934 
Q 4090 1146 4048 1414 
Q 4006 1683 3948 1964 
Q 3891 2246 3827 2490 
z
M 5504 2502 
L 5690 2432 
Q 5536 2048 5337 1597 
Q 5139 1146 4934 717 
Q 4730 288 4538 -32 
L 4384 38 
Q 4525 275 4678 582 
Q 4832 890 4985 1229 
Q 5139 1568 5273 1897 
Q 5408 2227 5504 2502 
z
M 2176 96 
L 5990 96 
L 5990 -96 
L 2176 -96 
L 2176 96 
z
" transform="scale(0.015625)"/>
      <path id="NotoSansSC-Thin-6409" d="M 1523 2963 
L 1523 544 
L 1338 544 
L 1338 2771 
L 339 2771 
L 339 2963 
L 1523 2963 
z
M 538 4941 
L 678 5037 
Q 877 4877 1078 4681 
Q 1280 4486 1456 4297 
Q 1632 4109 1747 3962 
L 1594 3846 
Q 1485 3994 1309 4186 
Q 1133 4378 931 4576 
Q 730 4774 538 4941 
z
M 2982 4410 
L 3104 4544 
Q 3424 4429 3773 4281 
Q 4122 4134 4438 3984 
Q 4755 3834 4966 3699 
L 4845 3546 
Q 4640 3674 4326 3830 
Q 4013 3987 3661 4140 
Q 3309 4294 2982 4410 
z
M 2342 3706 
L 5702 3706 
L 5702 3520 
L 2528 3520 
L 2528 390 
L 2342 390 
L 2342 3706 
z
M 5606 3706 
L 5798 3706 
L 5798 685 
Q 5798 563 5760 508 
Q 5722 454 5626 422 
Q 5523 397 5318 390 
Q 5114 384 4755 384 
Q 4749 429 4726 480 
Q 4704 531 4678 570 
Q 4979 563 5200 563 
Q 5421 563 5491 563 
Q 5562 570 5584 595 
Q 5606 621 5606 685 
L 5606 3706 
z
M 2291 5050 
L 5626 5050 
L 5626 4864 
L 2291 4864 
L 2291 5050 
z
M 2438 2739 
L 5722 2739 
L 5722 2554 
L 2438 2554 
L 2438 2739 
z
M 2438 1754 
L 5722 1754 
L 5722 1562 
L 2438 1562 
L 2438 1754 
z
M 3949 3661 
L 4134 3661 
L 4134 416 
L 3949 416 
L 3949 3661 
z
M 5581 5050 
L 5626 5050 
L 5670 5062 
L 5811 4966 
Q 5510 4672 5065 4409 
Q 4621 4147 4192 3981 
Q 4166 4013 4131 4054 
Q 4096 4096 4064 4122 
Q 4346 4224 4630 4368 
Q 4915 4512 5164 4678 
Q 5414 4845 5581 5005 
L 5581 5050 
z
M 1408 646 
Q 1568 646 1715 528 
Q 1862 410 2144 218 
Q 2477 13 2880 -48 
Q 3283 -109 3827 -109 
Q 4134 -109 4444 -102 
Q 4755 -96 5056 -83 
Q 5357 -70 5638 -57 
Q 5920 -45 6163 -26 
Q 6150 -51 6137 -86 
Q 6125 -122 6115 -160 
Q 6106 -198 6099 -230 
Q 5952 -237 5680 -249 
Q 5408 -262 5078 -268 
Q 4749 -275 4422 -281 
Q 4096 -288 3834 -288 
Q 3245 -288 2816 -211 
Q 2387 -134 2048 83 
Q 1856 205 1689 342 
Q 1523 480 1408 480 
Q 1293 480 1145 371 
Q 998 262 832 76 
Q 666 -109 480 -346 
L 339 -205 
Q 646 154 912 400 
Q 1178 646 1408 646 
z
" transform="scale(0.015625)"/>
      <path id="NotoSansSC-Thin-44b" d="M 282 1664 
L 282 1862 
L 10285 1862 
L 10285 1664 
L 282 1664 
z
" transform="scale(0.015625)"/>
      <path id="NotoSansSC-Thin-5fe6" d="M 883 5018 
L 1018 5139 
Q 1190 4992 1372 4816 
Q 1555 4640 1712 4473 
Q 1869 4307 1965 4179 
L 1830 4026 
Q 1734 4160 1577 4333 
Q 1421 4506 1238 4688 
Q 1056 4870 883 5018 
z
M 333 3270 
L 1523 3270 
L 1523 3078 
L 333 3078 
L 333 3270 
z
M 1229 -51 
L 1222 147 
L 1331 307 
L 2445 1018 
Q 2458 992 2467 966 
Q 2477 941 2489 915 
Q 2502 890 2509 870 
Q 2099 595 1856 425 
Q 1613 256 1485 163 
Q 1357 70 1305 25 
Q 1254 -19 1229 -51 
z
M 1229 -51 
Q 1216 -26 1193 3 
Q 1171 32 1148 64 
Q 1126 96 1101 115 
Q 1146 147 1219 214 
Q 1293 282 1353 384 
Q 1414 486 1414 621 
L 1414 3270 
L 1600 3270 
L 1600 326 
Q 1600 326 1561 297 
Q 1523 269 1468 224 
Q 1414 179 1360 128 
Q 1306 77 1267 29 
Q 1229 -19 1229 -51 
z
M 2842 5229 
L 3002 5293 
Q 3187 5037 3360 4729 
Q 3533 4422 3610 4205 
L 3437 4122 
Q 3392 4269 3296 4464 
Q 3200 4659 3081 4860 
Q 2963 5062 2842 5229 
z
M 5107 5318 
L 5286 5242 
Q 5146 4909 4973 4528 
Q 4800 4147 4634 3866 
L 4467 3949 
Q 4576 4134 4694 4377 
Q 4813 4621 4921 4870 
Q 5030 5120 5107 5318 
z
M 2707 3827 
L 2707 2336 
L 5248 2336 
L 5248 3827 
L 2707 3827 
z
M 2515 4013 
L 5440 4013 
L 5440 2144 
L 2515 2144 
L 2515 4013 
z
M 3443 2221 
L 3642 2221 
Q 3603 1722 3516 1302 
Q 3430 883 3264 550 
Q 3098 218 2813 -35 
Q 2528 -288 2086 -461 
Q 2067 -429 2022 -387 
Q 1978 -346 1946 -320 
Q 2374 -160 2652 83 
Q 2931 326 3094 643 
Q 3258 960 3334 1357 
Q 3411 1754 3443 2221 
z
M 4358 2214 
L 4550 2214 
L 4550 13 
Q 4550 -90 4598 -125 
Q 4646 -160 4813 -160 
Q 4851 -160 4960 -160 
Q 5069 -160 5203 -160 
Q 5338 -160 5453 -160 
Q 5568 -160 5619 -160 
Q 5722 -160 5773 -105 
Q 5824 -51 5846 128 
Q 5869 307 5869 672 
Q 5901 653 5933 637 
Q 5965 621 5997 608 
Q 6029 595 6061 582 
Q 6048 211 6013 6 
Q 5978 -198 5891 -275 
Q 5805 -352 5632 -352 
Q 5606 -352 5488 -352 
Q 5370 -352 5226 -352 
Q 5082 -352 4963 -352 
Q 4845 -352 4813 -352 
Q 4640 -352 4541 -323 
Q 4442 -294 4400 -217 
Q 4358 -141 4358 13 
L 4358 2214 
z
" transform="scale(0.015625)"/>
      <path id="NotoSansSC-Thin-3a25" d="M 710 4883 
L 2541 4883 
L 2541 1171 
L 710 1171 
L 710 1363 
L 2355 1363 
L 2355 4691 
L 710 4691 
L 710 4883 
z
M 710 3162 
L 2464 3162 
L 2464 2976 
L 710 2976 
L 710 3162 
z
M 3386 5024 
L 5734 5024 
L 5734 4838 
L 3386 4838 
L 3386 5024 
z
M 3386 3443 
L 5734 3443 
L 5734 3258 
L 3386 3258 
L 3386 3443 
z
M 3315 1818 
L 5715 1818 
L 5715 1632 
L 3315 1632 
L 3315 1818 
z
M 589 4883 
L 781 4883 
L 781 531 
L 589 531 
L 589 4883 
z
M 5664 5024 
L 5856 5024 
L 5856 -64 
Q 5856 -218 5805 -291 
Q 5754 -365 5632 -397 
Q 5510 -422 5254 -425 
Q 4998 -429 4576 -429 
Q 4570 -403 4557 -368 
Q 4544 -333 4528 -297 
Q 4512 -262 4493 -230 
Q 4736 -237 4944 -237 
Q 5152 -237 5299 -233 
Q 5446 -230 5504 -230 
Q 5594 -224 5629 -189 
Q 5664 -154 5664 -70 
L 5664 5024 
z
M 3283 5024 
L 3469 5024 
L 3469 2778 
Q 3469 2387 3427 1955 
Q 3386 1523 3258 1091 
Q 3130 659 2877 256 
Q 2624 -147 2202 -486 
Q 2189 -461 2166 -435 
Q 2144 -410 2118 -384 
Q 2093 -358 2074 -346 
Q 2483 -19 2723 365 
Q 2963 749 3084 1161 
Q 3206 1574 3244 1984 
Q 3283 2394 3283 2778 
L 3283 5024 
z
" transform="scale(0.015625)"/>
      <path id="NotoSansSC-Thin-69dc" d="M 710 3974 
L 896 3974 
L 896 -461 
L 710 -461 
L 710 3974 
z
M 806 5101 
L 947 5190 
Q 1114 5037 1296 4851 
Q 1478 4666 1638 4490 
Q 1798 4314 1901 4186 
L 1760 4077 
Q 1651 4205 1491 4384 
Q 1331 4563 1152 4752 
Q 973 4941 806 5101 
z
M 2330 4915 
L 5606 4915 
L 5606 4723 
L 2330 4723 
L 2330 4915 
z
M 5491 4915 
L 5683 4915 
L 5683 -32 
Q 5683 -179 5635 -249 
Q 5587 -320 5478 -352 
Q 5357 -378 5120 -387 
Q 4883 -397 4506 -390 
Q 4499 -346 4473 -285 
Q 4448 -224 4422 -179 
Q 4646 -186 4835 -186 
Q 5024 -186 5158 -182 
Q 5293 -179 5344 -179 
Q 5427 -173 5459 -144 
Q 5491 -115 5491 -32 
L 5491 4915 
z
M 2253 3398 
L 4237 3398 
L 4237 1133 
L 2253 1133 
L 2253 1318 
L 4045 1318 
L 4045 3213 
L 2253 3213 
L 2253 3398 
z
M 2150 3398 
L 2342 3398 
L 2342 659 
L 2150 659 
L 2150 3398 
z
" transform="scale(0.015625)"/>
      <path id="NotoSansSC-Thin-6c81" d="M 992 3987 
L 992 3322 
L 2669 3322 
L 2669 3987 
L 992 3987 
z
M 992 4838 
L 992 4179 
L 2669 4179 
L 2669 4838 
L 992 4838 
z
M 806 5024 
L 2854 5024 
L 2854 3130 
L 806 3130 
L 806 5024 
z
M 346 2547 
L 3232 2547 
L 3232 2362 
L 346 2362 
L 346 2547 
z
M 3226 4992 
L 6054 4992 
L 6054 4806 
L 3226 4806 
L 3226 4992 
z
M 1741 2477 
L 1926 2477 
L 1926 173 
L 1741 307 
L 1741 2477 
z
M 1798 1504 
L 3130 1504 
L 3130 1318 
L 1798 1318 
L 1798 1504 
z
M 4467 4870 
L 4672 4845 
Q 4608 4627 4537 4387 
Q 4467 4147 4397 3974 
L 4224 4000 
Q 4288 4186 4358 4435 
Q 4429 4685 4467 4870 
z
M 1056 1190 
Q 1261 768 1577 512 
Q 1894 256 2313 121 
Q 2733 -13 3241 -57 
Q 3750 -102 4333 -102 
Q 4378 -102 4547 -102 
Q 4717 -102 4950 -102 
Q 5184 -102 5421 -102 
Q 5658 -102 5840 -102 
Q 6022 -102 6086 -102 
Q 6061 -141 6032 -195 
Q 6003 -250 5990 -294 
L 5606 -294 
L 4326 -294 
Q 3712 -294 3184 -243 
Q 2656 -192 2224 -45 
Q 1792 102 1465 380 
Q 1139 659 915 1114 
L 1056 1190 
z
M 3539 4032 
L 5677 4032 
L 5677 1331 
L 5478 1331 
L 5478 3846 
L 3731 3846 
L 3731 1331 
L 3539 1331 
L 3539 4032 
z
M 986 1952 
L 1178 1939 
Q 1133 1158 976 576 
Q 819 -6 467 -422 
Q 454 -410 422 -387 
Q 390 -365 358 -342 
Q 326 -320 301 -307 
Q 659 77 803 646 
Q 947 1216 986 1952 
z
M 4544 3482 
L 4730 3482 
Q 4710 2778 4640 2237 
Q 4570 1696 4400 1299 
Q 4230 902 3913 620 
Q 3597 339 3072 154 
Q 3053 186 3017 224 
Q 2982 262 2950 288 
Q 3462 461 3769 729 
Q 4077 998 4237 1382 
Q 4397 1766 4461 2284 
Q 4525 2803 4544 3482 
z
M 4666 1299 
L 4806 1395 
Q 5024 1248 5254 1062 
Q 5485 877 5683 694 
Q 5882 512 6010 365 
L 5869 250 
Q 5741 397 5542 582 
Q 5344 768 5117 957 
Q 4890 1146 4666 1299 
z
" transform="scale(0.015625)"/>
      <path id="NotoSansSC-Thin-2b50" d="M 448 4224 
L 5952 4224 
L 5952 4032 
L 448 4032 
L 448 4224 
z
M 2330 2240 
L 5722 2240 
L 5722 2054 
L 2330 2054 
L 2330 2240 
z
M 2074 -115 
L 5971 -115 
L 5971 -307 
L 2074 -307 
L 2074 -115 
z
M 3910 3648 
L 4096 3648 
L 4096 -224 
L 3910 -224 
L 3910 3648 
z
M 2637 5312 
L 2829 5261 
Q 2618 4570 2291 3885 
Q 1965 3200 1513 2601 
Q 1062 2003 467 1555 
Q 454 1574 432 1600 
Q 410 1626 384 1654 
Q 358 1683 339 1696 
Q 774 2022 1132 2438 
Q 1491 2854 1776 3328 
Q 2061 3802 2278 4304 
Q 2496 4806 2637 5312 
z
M 1382 2720 
L 1568 2720 
L 1568 -416 
L 1382 -416 
L 1382 2720 
z
" transform="scale(0.015625)"/>
      <path id="NotoSansSC-Thin-4bf0" d="M 2822 5018 
L 6048 5018 
L 6048 4832 
L 2822 4832 
L 2822 5018 
z
M 2547 -6 
L 6080 -6 
L 6080 -192 
L 2547 -192 
L 2547 -6 
z
M 3290 1632 
L 3443 1677 
Q 3558 1453 3667 1190 
Q 3776 928 3862 681 
Q 3949 435 3987 243 
L 3814 198 
Q 3770 390 3686 636 
Q 3603 883 3500 1145 
Q 3398 1408 3290 1632 
z
M 5306 1709 
L 5530 1651 
Q 5414 1370 5276 1037 
Q 5139 704 4998 393 
Q 4858 83 4723 -141 
L 4563 -90 
Q 4691 141 4832 457 
Q 4973 774 5097 1107 
Q 5222 1440 5306 1709 
z
M 3251 3757 
L 3251 2285 
L 5536 2285 
L 5536 3757 
L 3251 3757 
z
M 3059 3949 
L 5722 3949 
L 5722 2093 
L 3059 2093 
L 3059 3949 
z
M 1491 4320 
L 1683 4320 
L 1683 3021 
Q 1683 2637 1638 2208 
Q 1594 1779 1462 1340 
Q 1331 902 1084 486 
Q 838 70 435 -288 
Q 422 -262 396 -236 
Q 371 -211 345 -185 
Q 320 -160 294 -147 
Q 691 198 928 598 
Q 1165 998 1286 1417 
Q 1408 1837 1449 2246 
Q 1491 2656 1491 3027 
L 1491 4320 
z
M 896 4403 
L 2566 4403 
L 2566 4218 
L 896 4218 
L 896 4403 
z
M 333 2726 
L 2682 2726 
L 2682 2541 
L 333 2541 
L 333 2726 
z
M 1562 1907 
Q 1613 1843 1718 1705 
Q 1824 1568 1949 1395 
Q 2074 1222 2198 1046 
Q 2323 870 2422 732 
Q 2522 595 2566 525 
L 2419 371 
Q 2355 480 2220 681 
Q 2086 883 1932 1107 
Q 1779 1331 1641 1520 
Q 1504 1709 1434 1798 
L 1562 1907 
z
M 1005 5312 
L 1197 5280 
Q 1133 4858 1033 4454 
Q 934 4051 806 3702 
Q 678 3354 512 3078 
Q 499 3091 467 3113 
Q 435 3136 400 3155 
Q 365 3174 339 3187 
Q 595 3584 755 4144 
Q 915 4704 1005 5312 
z
" transform="scale(0.015625)"/>
      <path id="NotoSansSC-Thin-5579" d="M 755 5069 
L 1888 5069 
L 1888 4883 
L 755 4883 
L 755 5069 
z
M 755 3526 
L 1888 3526 
L 1888 3341 
L 755 3341 
L 755 3526 
z
M 736 1946 
L 1894 1946 
L 1894 1760 
L 736 1760 
L 736 1946 
z
M 666 5069 
L 851 5069 
L 851 2797 
Q 851 2438 838 2022 
Q 826 1606 784 1171 
Q 742 736 656 323 
Q 570 -90 429 -448 
Q 416 -429 384 -413 
Q 352 -397 320 -377 
Q 288 -358 262 -352 
Q 403 -6 483 397 
Q 563 800 601 1219 
Q 640 1638 653 2041 
Q 666 2445 666 2790 
L 666 5069 
z
M 1792 5069 
L 1984 5069 
L 1984 -102 
Q 1984 -218 1945 -275 
Q 1907 -333 1824 -365 
Q 1741 -390 1581 -396 
Q 1421 -403 1146 -397 
Q 1139 -365 1113 -310 
Q 1088 -256 1062 -211 
Q 1293 -218 1462 -218 
Q 1632 -218 1690 -211 
Q 1792 -211 1792 -102 
L 1792 5069 
z
M 5805 2477 
L 5946 2362 
Q 5747 2163 5488 1958 
Q 5229 1754 5011 1613 
L 4896 1722 
Q 5037 1818 5203 1952 
Q 5370 2086 5530 2227 
Q 5690 2368 5805 2477 
z
M 3738 5037 
L 5683 5037 
L 5683 2765 
L 3738 2765 
L 3738 2957 
L 5498 2957 
L 5498 4851 
L 3738 4851 
L 3738 5037 
z
M 3738 4000 
L 5606 4000 
L 5606 3814 
L 3738 3814 
L 3738 4000 
z
M 2976 2989 
L 2976 416 
L 2784 416 
L 2784 2797 
L 2227 2797 
L 2227 2989 
L 2976 2989 
z
M 2336 4845 
L 2490 4915 
Q 2662 4678 2822 4384 
Q 2982 4090 3053 3878 
L 2886 3789 
Q 2835 3936 2748 4118 
Q 2662 4301 2553 4493 
Q 2445 4685 2336 4845 
z
M 2880 499 
Q 3021 499 3142 396 
Q 3264 294 3469 160 
Q 3699 13 3984 -44 
Q 4269 -102 4646 -102 
Q 4858 -102 5126 -96 
Q 5395 -90 5664 -77 
Q 5933 -64 6144 -45 
Q 6131 -70 6118 -112 
Q 6106 -154 6096 -192 
Q 6086 -230 6080 -269 
Q 5907 -275 5638 -284 
Q 5370 -294 5098 -300 
Q 4826 -307 4634 -307 
Q 4243 -307 3936 -240 
Q 3629 -173 3386 -6 
Q 3226 109 3104 211 
Q 2982 314 2880 314 
Q 2790 314 2672 224 
Q 2554 134 2416 -19 
Q 2278 -173 2138 -358 
L 1984 -192 
Q 2234 102 2458 300 
Q 2682 499 2880 499 
z
M 3526 499 
L 3526 678 
L 3648 806 
L 4826 1242 
Q 4838 1210 4857 1168 
Q 4877 1126 4890 1094 
Q 4461 922 4205 816 
Q 3949 710 3811 649 
Q 3674 589 3616 557 
Q 3558 525 3526 499 
z
M 4307 2330 
L 4448 2406 
Q 4710 2144 4976 1830 
Q 5242 1517 5472 1219 
Q 5702 922 5843 691 
L 5696 582 
Q 5562 813 5334 1117 
Q 5107 1421 4838 1741 
Q 4570 2061 4307 2330 
z
M 3526 499 
Q 3514 531 3478 592 
Q 3443 653 3411 691 
Q 3475 723 3558 806 
Q 3642 890 3642 1069 
L 3642 5037 
L 3834 5037 
L 3834 774 
Q 3834 774 3789 742 
Q 3744 710 3683 665 
Q 3622 621 3574 576 
Q 3526 531 3526 499 
z
" transform="scale(0.015625)"/>
      <path id="NotoSansSC-Thin-2245" d="M 474 4845 
L 5920 4845 
L 5920 4653 
L 474 4653 
L 474 4845 
z
M 3654 3258 
L 3776 3373 
Q 4083 3194 4406 2982 
Q 4730 2771 5037 2547 
Q 5344 2323 5606 2112 
Q 5869 1901 6048 1722 
L 5920 1574 
Q 5741 1754 5478 1971 
Q 5216 2189 4912 2416 
Q 4608 2643 4285 2860 
Q 3962 3078 3654 3258 
z
M 3674 4794 
L 3859 4717 
Q 3501 4070 2982 3459 
Q 2464 2848 1830 2329 
Q 1197 1811 480 1427 
Q 467 1446 441 1472 
Q 416 1498 393 1523 
Q 371 1549 352 1568 
Q 883 1850 1372 2208 
Q 1862 2566 2294 2985 
Q 2726 3405 3075 3862 
Q 3424 4320 3674 4794 
z
M 3091 3789 
L 3283 3974 
L 3283 3974 
L 3283 -442 
L 3091 -442 
L 3091 3789 
z
" transform="scale(0.015625)"/>
      <path id="NotoSansSC-Thin-2419" d="M 2438 3322 
L 5440 3322 
L 5440 3130 
L 2438 3130 
L 2438 3322 
z
M 2438 2438 
L 5440 2438 
L 5440 2253 
L 2438 2253 
L 2438 2438 
z
M 2458 32 
L 5402 32 
L 5402 -154 
L 2458 -154 
L 2458 32 
z
M 1965 4198 
L 5978 4198 
L 5978 4006 
L 1965 4006 
L 1965 4198 
z
M 2368 1523 
L 5491 1523 
L 5491 -442 
L 5299 -442 
L 5299 1338 
L 2554 1338 
L 2554 -461 
L 2368 -461 
L 2368 1523 
z
M 3475 5229 
L 3661 5299 
Q 3802 5107 3933 4880 
Q 4064 4653 4128 4486 
L 3936 4397 
Q 3872 4563 3741 4796 
Q 3610 5030 3475 5229 
z
M 1773 5293 
L 1952 5248 
Q 1766 4710 1523 4201 
Q 1280 3693 995 3245 
Q 710 2797 403 2438 
Q 390 2458 364 2486 
Q 339 2515 310 2544 
Q 282 2573 256 2592 
Q 563 2925 844 3360 
Q 1126 3795 1363 4288 
Q 1600 4781 1773 5293 
z
M 1152 3731 
L 1325 3910 
L 1338 3904 
L 1338 -467 
L 1152 -467 
L 1152 3731 
z
" transform="scale(0.015625)"/>
     </defs>
     <use xlink:href="#NotoSansSC-Thin-36a6"/>
     <use xlink:href="#NotoSansSC-Thin-39d0" transform="translate(100 0)"/>
     <use xlink:href="#NotoSansSC-Thin-283f" transform="translate(200 0)"/>
     <use xlink:href="#NotoSansSC-Thin-27fc" transform="translate(300 0)"/>
     <use xlink:href="#NotoSansSC-Thin-63b6" transform="translate(400 0)"/>
     <use xlink:href="#NotoSansSC-Thin-3b79" transform="translate(500 0)"/>
     <use xlink:href="#NotoSansSC-Thin-3a46" transform="translate(600 0)"/>
     <use xlink:href="#NotoSansSC-Thin-1" transform="translate(700 0)"/>
     <use xlink:href="#NotoSansSC-Thin-e" transform="translate(722 0)"/>
     <use xlink:href="#NotoSansSC-Thin-11" transform="translate(754.40625 0)"/>
     <use xlink:href="#NotoSansSC-Thin-f" transform="translate(806.5 0)"/>
     <use xlink:href="#NotoSansSC-Thin-13" transform="translate(829.59375 0)"/>
     <use xlink:href="#NotoSansSC-Thin-13" transform="translate(881.6875 0)"/>
     <use xlink:href="#NotoSansSC-Thin-743f" transform="translate(933.78125 0)"/>
     <use xlink:href="#NotoSansSC-Thin-4f26" transform="translate(1033.78125 0)"/>
     <use xlink:href="#NotoSansSC-Thin-2825" transform="translate(1133.78125 0)"/>
     <use xlink:href="#NotoSansSC-Thin-52a4" transform="translate(1233.78125 0)"/>
     <use xlink:href="#NotoSansSC-Thin-2fbc" transform="translate(1333.78125 0)"/>
     <use xlink:href="#NotoSansSC-Thin-55e4" transform="translate(1433.78125 0)"/>
     <use xlink:href="#NotoSansSC-Thin-3cd4" transform="translate(1533.78125 0)"/>
     <use xlink:href="#NotoSansSC-Thin-6409" transform="translate(1633.78125 0)"/>
     <use xlink:href="#NotoSansSC-Thin-63b6" transform="translate(1733.78125 0)"/>
     <use xlink:href="#NotoSansSC-Thin-7440" transform="translate(1833.78125 0)"/>
     <use xlink:href="#NotoSansSC-Thin-44b" transform="translate(1933.78125 0)"/>
     <use xlink:href="#NotoSansSC-Thin-5fe6" transform="translate(2098.875 0)"/>
     <use xlink:href="#NotoSansSC-Thin-3a25" transform="translate(2198.875 0)"/>
     <use xlink:href="#NotoSansSC-Thin-69dc" transform="translate(2298.875 0)"/>
     <use xlink:href="#NotoSansSC-Thin-6c81" transform="translate(2398.875 0)"/>
     <use xlink:href="#NotoSansSC-Thin-2b50" transform="translate(2498.875 0)"/>
     <use xlink:href="#NotoSansSC-Thin-4bf0" transform="translate(2598.875 0)"/>
     <use xlink:href="#NotoSansSC-Thin-5579" transform="translate(2698.875 0)"/>
     <use xlink:href="#NotoSansSC-Thin-7443" transform="translate(2798.875 0)"/>
     <use xlink:href="#NotoSansSC-Thin-2245" transform="translate(2898.875 0)"/>
     <use xlink:href="#NotoSansSC-Thin-2b50" transform="translate(2998.875 0)"/>
     <use xlink:href="#NotoSansSC-Thin-2419" transform="translate(3098.875 0)"/>
     <use xlink:href="#NotoSansSC-Thin-2825" transform="translate(3198.875 0)"/>
    </g>
   </g>
   <g id="text_12">
    <!-- 同样的信号、同样的等权：只做多 0.56，多空只有 0.15 -->
    <g style="fill: #111827" transform="translate(58.7 18.112) scale(0.124 -0.124)">
     <defs>
      <path id="NotoSansSC-Thin-283a" d="M 1574 3885 
L 4883 3885 
L 4883 3693 
L 1574 3693 
L 1574 3885 
z
M 1926 2835 
L 2112 2835 
L 2112 410 
L 1926 410 
L 1926 2835 
z
M 2022 2835 
L 4474 2835 
L 4474 915 
L 2022 915 
L 2022 1107 
L 4288 1107 
L 4288 2650 
L 2022 2650 
L 2022 2835 
z
M 640 4954 
L 5741 4954 
L 5741 4768 
L 832 4768 
L 832 -467 
L 640 -467 
L 640 4954 
z
M 5581 4954 
L 5773 4954 
L 5773 -109 
Q 5773 -256 5718 -326 
Q 5664 -397 5555 -422 
Q 5453 -448 5216 -454 
Q 4979 -461 4557 -454 
Q 4550 -429 4534 -400 
Q 4518 -371 4502 -336 
Q 4486 -301 4467 -275 
Q 4819 -282 5078 -282 
Q 5338 -282 5421 -275 
Q 5510 -269 5545 -233 
Q 5581 -198 5581 -115 
L 5581 4954 
z
" transform="scale(0.015625)"/>
      <path id="NotoSansSC-Thin-3c4b" d="M 2541 4051 
L 5824 4051 
L 5824 3866 
L 2541 3866 
L 2541 4051 
z
M 2746 2720 
L 5600 2720 
L 5600 2534 
L 2746 2534 
L 2746 2720 
z
M 2240 1357 
L 5971 1357 
L 5971 1165 
L 2240 1165 
L 2240 1357 
z
M 4064 3981 
L 4256 3981 
L 4256 -448 
L 4064 -448 
L 4064 3981 
z
M 2874 5197 
L 3034 5274 
Q 3219 5037 3392 4752 
Q 3565 4467 3648 4262 
L 3482 4160 
Q 3398 4365 3228 4662 
Q 3059 4960 2874 5197 
z
M 5434 5318 
L 5619 5229 
Q 5446 4902 5225 4537 
Q 5005 4173 4813 3917 
L 4659 4000 
Q 4794 4173 4938 4403 
Q 5082 4634 5213 4877 
Q 5344 5120 5434 5318 
z
M 429 4038 
L 2266 4038 
L 2266 3853 
L 429 3853 
L 429 4038 
z
M 1331 5318 
L 1517 5318 
L 1517 -435 
L 1331 -435 
L 1331 5318 
z
M 1318 3987 
L 1485 3949 
Q 1408 3571 1293 3155 
Q 1178 2739 1034 2339 
Q 890 1939 730 1593 
Q 570 1248 403 1011 
Q 390 1037 361 1065 
Q 333 1094 307 1120 
Q 282 1146 256 1158 
Q 416 1389 573 1715 
Q 730 2042 874 2426 
Q 1018 2810 1133 3213 
Q 1248 3616 1318 3987 
z
M 1510 3565 
Q 1562 3501 1661 3337 
Q 1760 3174 1878 2982 
Q 1997 2790 2096 2627 
Q 2195 2464 2234 2394 
L 2093 2221 
Q 2048 2323 1952 2499 
Q 1856 2675 1744 2870 
Q 1632 3066 1536 3229 
Q 1440 3392 1389 3469 
L 1510 3565 
z
" transform="scale(0.015625)"/>
      <path id="NotoSansSC-Thin-4a88" d="M 762 4294 
L 2688 4294 
L 2688 237 
L 762 237 
L 762 429 
L 2496 429 
L 2496 4109 
L 762 4109 
L 762 4294 
z
M 640 4294 
L 832 4294 
L 832 -307 
L 640 -307 
L 640 4294 
z
M 730 2445 
L 2624 2445 
L 2624 2259 
L 730 2259 
L 730 2445 
z
M 1690 5338 
L 1888 5274 
Q 1805 5005 1696 4707 
Q 1587 4410 1491 4205 
L 1331 4262 
Q 1395 4410 1462 4598 
Q 1530 4787 1590 4985 
Q 1651 5184 1690 5338 
z
M 3667 4288 
L 5728 4288 
L 5728 4096 
L 3667 4096 
L 3667 4288 
z
M 5651 4288 
L 5843 4288 
Q 5843 4288 5843 4259 
Q 5843 4230 5843 4195 
Q 5843 4160 5843 4141 
Q 5798 3021 5756 2253 
Q 5715 1485 5660 1001 
Q 5606 518 5539 259 
Q 5472 0 5376 -109 
Q 5293 -205 5203 -240 
Q 5114 -275 4966 -282 
Q 4826 -288 4576 -278 
Q 4326 -269 4064 -250 
Q 4058 -198 4045 -147 
Q 4032 -96 4000 -64 
Q 4320 -90 4579 -96 
Q 4838 -102 4941 -102 
Q 5037 -102 5101 -86 
Q 5165 -70 5210 -6 
Q 5293 83 5357 342 
Q 5421 602 5472 1088 
Q 5523 1574 5568 2345 
Q 5613 3117 5651 4230 
L 5651 4288 
z
M 3910 5370 
L 4096 5331 
Q 3987 4851 3836 4400 
Q 3686 3949 3500 3555 
Q 3315 3162 3091 2854 
Q 3078 2867 3046 2886 
Q 3014 2906 2982 2925 
Q 2950 2944 2925 2957 
Q 3149 3258 3334 3642 
Q 3520 4026 3664 4467 
Q 3808 4909 3910 5370 
z
M 3635 2810 
L 3782 2899 
Q 3987 2669 4198 2397 
Q 4410 2125 4586 1872 
Q 4762 1619 4870 1427 
L 4704 1312 
Q 4602 1510 4426 1769 
Q 4250 2029 4042 2304 
Q 3834 2579 3635 2810 
z
" transform="scale(0.015625)"/>
      <path id="NotoSansSC-Thin-475" d="M 1862 -275 
Q 1645 -6 1395 256 
Q 1146 518 893 752 
Q 640 986 410 1165 
L 570 1318 
Q 806 1133 1056 899 
Q 1306 666 1558 406 
Q 1811 147 2048 -122 
L 1862 -275 
z
" transform="scale(0.015625)"/>
      <path id="NotoSansSC-Thin-775c" d="M 1600 3213 
Q 1466 3213 1354 3302 
Q 1242 3392 1242 3571 
Q 1242 3750 1354 3840 
Q 1466 3930 1600 3930 
Q 1734 3930 1846 3840 
Q 1958 3750 1958 3571 
Q 1958 3392 1846 3302 
Q 1734 3213 1600 3213 
z
M 1600 0 
Q 1466 0 1354 89 
Q 1242 179 1242 358 
Q 1242 538 1354 627 
Q 1466 717 1600 717 
Q 1734 717 1846 627 
Q 1958 538 1958 358 
Q 1958 179 1846 89 
Q 1734 0 1600 0 
z
" transform="scale(0.015625)"/>
      <path id="NotoSansSC-Thin-16" d="M 1581 -83 
Q 1222 -83 963 9 
Q 704 102 515 240 
Q 326 378 186 518 
L 333 691 
Q 467 550 636 422 
Q 806 294 1040 211 
Q 1274 128 1594 128 
Q 1901 128 2166 294 
Q 2432 461 2592 765 
Q 2752 1069 2752 1466 
Q 2752 2061 2441 2406 
Q 2131 2752 1606 2752 
Q 1350 2752 1152 2665 
Q 954 2579 755 2445 
L 563 2560 
L 730 4646 
L 2758 4646 
L 2758 4435 
L 941 4435 
L 787 2726 
Q 966 2835 1168 2902 
Q 1370 2970 1626 2970 
Q 2010 2970 2320 2813 
Q 2630 2656 2812 2326 
Q 2995 1997 2995 1478 
Q 2995 979 2787 630 
Q 2579 282 2256 99 
Q 1933 -83 1581 -83 
z
" transform="scale(0.015625)"/>
      <path id="NotoSansSC-Thin-3b1e" d="M 461 4429 
L 5965 4429 
L 5965 4243 
L 461 4243 
L 461 4429 
z
M 1862 2163 
L 5088 2163 
L 5088 1978 
L 1862 1978 
L 1862 2163 
z
M 1754 3264 
L 5050 3264 
L 5050 3072 
L 1939 3072 
L 1939 -448 
L 1754 -448 
L 1754 3264 
z
M 4986 3264 
L 5178 3264 
L 5178 -83 
Q 5178 -224 5133 -291 
Q 5088 -358 4960 -390 
Q 4838 -416 4572 -416 
Q 4307 -416 3872 -416 
Q 3866 -378 3840 -323 
Q 3814 -269 3789 -224 
Q 4051 -230 4262 -233 
Q 4474 -237 4624 -233 
Q 4774 -230 4838 -230 
Q 4928 -224 4957 -192 
Q 4986 -160 4986 -83 
L 4986 3264 
z
M 2669 5312 
L 2848 5261 
Q 2637 4582 2307 3920 
Q 1978 3258 1517 2682 
Q 1056 2106 461 1677 
Q 454 1702 432 1728 
Q 410 1754 390 1779 
Q 371 1805 352 1824 
Q 787 2131 1148 2528 
Q 1510 2925 1801 3379 
Q 2093 3834 2310 4323 
Q 2528 4813 2669 5312 
z
M 1862 1056 
L 5088 1056 
L 5088 864 
L 1862 864 
L 1862 1056 
z
" transform="scale(0.015625)"/>
     </defs>
     <use xlink:href="#NotoSansSC-Thin-283a"/>
     <use xlink:href="#NotoSansSC-Thin-3c4b" transform="translate(100 0)"/>
     <use xlink:href="#NotoSansSC-Thin-4a88" transform="translate(200 0)"/>
     <use xlink:href="#NotoSansSC-Thin-2419" transform="translate(300 0)"/>
     <use xlink:href="#NotoSansSC-Thin-2825" transform="translate(400 0)"/>
     <use xlink:href="#NotoSansSC-Thin-475" transform="translate(500 0)"/>
     <use xlink:href="#NotoSansSC-Thin-283a" transform="translate(600 0)"/>
     <use xlink:href="#NotoSansSC-Thin-3c4b" transform="translate(700 0)"/>
     <use xlink:href="#NotoSansSC-Thin-4a88" transform="translate(800 0)"/>
     <use xlink:href="#NotoSansSC-Thin-4f49" transform="translate(900 0)"/>
     <use xlink:href="#NotoSansSC-Thin-3b57" transform="translate(1000 0)"/>
     <use xlink:href="#NotoSansSC-Thin-775c" transform="translate(1100 0)"/>
     <use xlink:href="#NotoSansSC-Thin-2818" transform="translate(1200 0)"/>
     <use xlink:href="#NotoSansSC-Thin-2491" transform="translate(1300 0)"/>
     <use xlink:href="#NotoSansSC-Thin-2d3d" transform="translate(1400 0)"/>
     <use xlink:href="#NotoSansSC-Thin-1" transform="translate(1500 0)"/>
     <use xlink:href="#NotoSansSC-Thin-11" transform="translate(1522 0)"/>
     <use xlink:href="#NotoSansSC-Thin-f" transform="translate(1574.09375 0)"/>
     <use xlink:href="#NotoSansSC-Thin-16" transform="translate(1597.1875 0)"/>
     <use xlink:href="#NotoSansSC-Thin-17" transform="translate(1649.28125 0)"/>
     <use xlink:href="#NotoSansSC-Thin-7443" transform="translate(1701.375 0)"/>
     <use xlink:href="#NotoSansSC-Thin-2d3d" transform="translate(1801.375 0)"/>
     <use xlink:href="#NotoSansSC-Thin-4e7a" transform="translate(1901.375 0)"/>
     <use xlink:href="#NotoSansSC-Thin-2818" transform="translate(2001.375 0)"/>
     <use xlink:href="#NotoSansSC-Thin-3b1e" transform="translate(2101.375 0)"/>
     <use xlink:href="#NotoSansSC-Thin-1" transform="translate(2201.375 0)"/>
     <use xlink:href="#NotoSansSC-Thin-11" transform="translate(2223.375 0)"/>
     <use xlink:href="#NotoSansSC-Thin-f" transform="translate(2275.46875 0)"/>
     <use xlink:href="#NotoSansSC-Thin-12" transform="translate(2298.5625 0)"/>
     <use xlink:href="#NotoSansSC-Thin-16" transform="translate(2350.65625 0)"/>
    </g>
   </g>
  </g>
  <g id="text_13">
   <!-- 来源：本文计算，1/N 等权、12 个月动量、毛口径。 -->
   <g style="fill: #6b7280" transform="translate(8.804 260.864487) scale(0.078 -0.078)">
    <defs>
     <path id="NotoSansSC-Thin-429d" d="M 2304 5024 
L 6035 5024 
L 6035 4838 
L 2304 4838 
L 2304 5024 
z
M 2214 5024 
L 2406 5024 
L 2406 3283 
Q 2406 2874 2377 2400 
Q 2349 1926 2262 1436 
Q 2176 947 2006 476 
Q 1837 6 1555 -397 
Q 1542 -378 1513 -358 
Q 1485 -339 1456 -320 
Q 1427 -301 1402 -294 
Q 1677 102 1840 560 
Q 2003 1018 2083 1491 
Q 2163 1965 2188 2422 
Q 2214 2880 2214 3283 
L 2214 5024 
z
M 3110 2765 
L 3110 1990 
L 5542 1990 
L 5542 2765 
L 3110 2765 
z
M 3110 3718 
L 3110 2957 
L 5542 2957 
L 5542 3718 
L 3110 3718 
z
M 2925 3910 
L 5728 3910 
L 5728 1798 
L 2925 1798 
L 2925 3910 
z
M 3270 1338 
L 3456 1286 
Q 3341 1050 3193 810 
Q 3046 570 2886 355 
Q 2726 141 2566 -26 
Q 2554 -6 2522 13 
Q 2490 32 2458 57 
Q 2426 83 2400 96 
Q 2650 339 2880 665 
Q 3110 992 3270 1338 
z
M 5075 1293 
L 5242 1363 
Q 5395 1165 5555 937 
Q 5715 710 5856 499 
Q 5997 288 6086 134 
L 5907 38 
Q 5824 198 5683 412 
Q 5542 627 5385 860 
Q 5229 1094 5075 1293 
z
M 4218 4634 
L 4410 4570 
Q 4346 4365 4272 4144 
Q 4198 3923 4128 3770 
L 3981 3827 
Q 4038 3994 4108 4227 
Q 4179 4461 4218 4634 
z
M 4211 1939 
L 4397 1939 
L 4397 -173 
Q 4397 -282 4361 -336 
Q 4326 -390 4237 -416 
Q 4141 -442 3939 -448 
Q 3738 -454 3398 -448 
Q 3392 -416 3373 -368 
Q 3354 -320 3328 -275 
Q 3616 -282 3824 -282 
Q 4032 -282 4096 -282 
Q 4211 -275 4211 -173 
L 4211 1939 
z
M 627 5101 
L 749 5222 
Q 934 5107 1139 4972 
Q 1344 4838 1526 4707 
Q 1709 4576 1830 4480 
L 1715 4326 
Q 1594 4429 1408 4563 
Q 1222 4698 1017 4842 
Q 813 4986 627 5101 
z
M 307 3379 
L 422 3507 
Q 614 3405 822 3280 
Q 1030 3155 1219 3036 
Q 1408 2918 1536 2822 
L 1427 2669 
Q 1299 2765 1110 2889 
Q 922 3014 710 3145 
Q 499 3277 307 3379 
z
M 493 -224 
Q 646 26 832 374 
Q 1018 723 1203 1110 
Q 1389 1498 1542 1843 
L 1690 1728 
Q 1549 1395 1369 1020 
Q 1190 646 1004 288 
Q 819 -70 653 -352 
L 493 -224 
z
" transform="scale(0.015625)"/>
     <path id="NotoSansSC-Thin-3b40" d="M 454 3859 
L 5958 3859 
L 5958 3667 
L 454 3667 
L 454 3859 
z
M 1453 1056 
L 4954 1056 
L 4954 864 
L 1453 864 
L 1453 1056 
z
M 3098 5306 
L 3290 5306 
L 3290 -448 
L 3098 -448 
L 3098 5306 
z
M 2816 3821 
L 2982 3757 
Q 2720 3104 2320 2502 
Q 1920 1901 1443 1414 
Q 966 928 467 627 
Q 454 653 428 681 
Q 403 710 377 736 
Q 352 762 326 781 
Q 826 1056 1299 1529 
Q 1773 2003 2169 2598 
Q 2566 3194 2816 3821 
z
M 3558 3802 
Q 3808 3162 4208 2570 
Q 4608 1978 5104 1514 
Q 5600 1050 6131 787 
Q 6106 768 6080 742 
Q 6054 717 6032 688 
Q 6010 659 5990 634 
Q 5459 915 4966 1395 
Q 4474 1875 4067 2480 
Q 3661 3085 3398 3744 
L 3558 3802 
z
" transform="scale(0.015625)"/>
     <path id="NotoSansSC-Thin-399e" d="M 4851 4058 
L 5043 3987 
Q 4614 2835 3977 1993 
Q 3341 1152 2464 563 
Q 1587 -26 435 -429 
Q 422 -410 400 -374 
Q 378 -339 352 -304 
Q 326 -269 301 -250 
Q 1453 128 2323 707 
Q 3194 1286 3818 2112 
Q 4442 2938 4851 4058 
z
M 1504 4051 
Q 1901 3008 2557 2147 
Q 3213 1286 4105 672 
Q 4998 58 6112 -243 
Q 6093 -262 6067 -294 
Q 6042 -326 6016 -355 
Q 5990 -384 5971 -416 
Q 4851 -96 3955 528 
Q 3059 1152 2400 2032 
Q 1741 2912 1331 3987 
L 1504 4051 
z
M 358 4134 
L 6067 4134 
L 6067 3949 
L 358 3949 
L 358 4134 
z
M 2778 5274 
L 2957 5331 
Q 3123 5101 3283 4819 
Q 3443 4538 3526 4339 
L 3341 4269 
Q 3264 4467 3104 4752 
Q 2944 5037 2778 5274 
z
" transform="scale(0.015625)"/>
     <path id="NotoSansSC-Thin-5f93" d="M 1018 5037 
L 1152 5158 
Q 1331 5011 1516 4835 
Q 1702 4659 1862 4489 
Q 2022 4320 2118 4186 
L 1990 4032 
Q 1888 4166 1728 4342 
Q 1568 4518 1382 4704 
Q 1197 4890 1018 5037 
z
M 1299 -230 
L 1293 -32 
L 1402 128 
L 2554 890 
Q 2566 870 2579 841 
Q 2592 813 2608 787 
Q 2624 762 2630 742 
Q 2208 454 1958 278 
Q 1709 102 1577 6 
Q 1446 -90 1388 -141 
Q 1331 -192 1299 -230 
z
M 346 3270 
L 1542 3270 
L 1542 3078 
L 346 3078 
L 346 3270 
z
M 2413 3085 
L 6086 3085 
L 6086 2899 
L 2413 2899 
L 2413 3085 
z
M 4122 5306 
L 4307 5306 
L 4307 -448 
L 4122 -448 
L 4122 5306 
z
M 1299 -230 
Q 1286 -205 1264 -173 
Q 1242 -141 1216 -112 
Q 1190 -83 1165 -64 
Q 1235 -19 1340 99 
Q 1446 218 1446 416 
L 1446 3270 
L 1632 3270 
L 1632 128 
Q 1632 128 1597 99 
Q 1562 70 1514 28 
Q 1466 -13 1418 -64 
Q 1370 -115 1334 -156 
Q 1299 -198 1299 -230 
z
" transform="scale(0.015625)"/>
     <path id="NotoSansSC-Thin-4f97" d="M 410 864 
L 6029 864 
L 6029 678 
L 410 678 
L 410 864 
z
M 1402 3021 
L 1402 2502 
L 5107 2502 
L 5107 3021 
L 1402 3021 
z
M 1402 2317 
L 1402 1786 
L 5107 1786 
L 5107 2317 
L 1402 2317 
z
M 1402 3712 
L 1402 3206 
L 5107 3206 
L 5107 3712 
L 1402 3712 
z
M 1210 3904 
L 5293 3904 
L 5293 1600 
L 1210 1600 
L 1210 3904 
z
M 4262 1645 
L 4448 1645 
L 4448 -442 
L 4262 -442 
L 4262 1645 
z
M 1005 4781 
L 3123 4781 
L 3123 4595 
L 1005 4595 
L 1005 4781 
z
M 3398 4781 
L 5946 4781 
L 5946 4595 
L 3398 4595 
L 3398 4781 
z
M 1222 5325 
L 1408 5280 
Q 1242 4870 995 4489 
Q 749 4109 480 3840 
Q 467 3853 435 3875 
Q 403 3898 371 3920 
Q 339 3942 314 3955 
Q 595 4218 835 4576 
Q 1075 4934 1222 5325 
z
M 3654 5325 
L 3840 5286 
Q 3699 4883 3459 4531 
Q 3219 4179 2944 3936 
Q 2931 3955 2899 3977 
Q 2867 4000 2835 4022 
Q 2803 4045 2778 4058 
Q 3059 4294 3289 4624 
Q 3520 4954 3654 5325 
z
M 1568 4621 
L 1741 4678 
Q 1850 4531 1965 4342 
Q 2080 4154 2125 4019 
L 1958 3949 
Q 1901 4083 1795 4275 
Q 1690 4467 1568 4621 
z
M 4134 4653 
L 4294 4736 
Q 4454 4589 4611 4390 
Q 4768 4192 4845 4038 
L 4685 3949 
Q 4614 4096 4457 4297 
Q 4301 4499 4134 4653 
z
M 2150 1651 
L 2349 1651 
L 2349 1229 
Q 2349 1043 2301 825 
Q 2253 608 2086 384 
Q 1920 160 1581 -57 
Q 1242 -275 653 -461 
Q 627 -429 595 -381 
Q 563 -333 531 -307 
Q 1101 -141 1427 54 
Q 1754 250 1907 461 
Q 2061 672 2105 870 
Q 2150 1069 2150 1235 
L 2150 1651 
z
" transform="scale(0.015625)"/>
     <path id="NotoSansSC-Thin-2262" d="M 3290 5318 
L 3450 5242 
Q 3123 4704 2649 4179 
Q 2176 3654 1609 3212 
Q 1043 2771 448 2470 
Q 422 2502 380 2540 
Q 339 2579 301 2605 
Q 902 2899 1465 3334 
Q 2029 3770 2502 4282 
Q 2976 4794 3290 5318 
z
M 3270 5050 
Q 3590 4550 4009 4121 
Q 4429 3693 4957 3321 
Q 5485 2950 6118 2605 
Q 6080 2579 6041 2537 
Q 6003 2496 5978 2458 
Q 5338 2816 4813 3203 
Q 4288 3590 3869 4032 
Q 3450 4474 3117 4986 
L 3270 5050 
z
M 3104 3616 
L 3296 3616 
L 3296 -448 
L 3104 -448 
L 3104 3616 
z
" transform="scale(0.015625)"/>
     <path id="NotoSansSC-Thin-3b1d" d="M 1523 4941 
L 4998 4941 
L 4998 4755 
L 1523 4755 
L 1523 4941 
z
M 1517 3386 
L 5024 3386 
L 5024 3200 
L 1517 3200 
L 1517 3386 
z
M 1446 1811 
L 5005 1811 
L 5005 1626 
L 1446 1626 
L 1446 1811 
z
M 1453 4941 
L 1638 4941 
L 1638 3110 
Q 1638 2694 1596 2230 
Q 1555 1766 1427 1289 
Q 1299 813 1046 365 
Q 794 -83 371 -461 
Q 358 -435 336 -409 
Q 314 -384 288 -358 
Q 262 -333 237 -320 
Q 646 51 889 480 
Q 1133 909 1254 1360 
Q 1376 1811 1414 2259 
Q 1453 2707 1453 3110 
L 1453 4941 
z
M 4934 4941 
L 5126 4941 
L 5126 -6 
Q 5126 -179 5065 -259 
Q 5005 -339 4864 -371 
Q 4723 -397 4409 -403 
Q 4096 -410 3565 -410 
Q 3558 -378 3542 -342 
Q 3526 -307 3510 -272 
Q 3494 -237 3475 -205 
Q 3782 -211 4041 -211 
Q 4301 -211 4483 -208 
Q 4666 -205 4736 -205 
Q 4851 -198 4892 -156 
Q 4934 -115 4934 -6 
L 4934 4941 
z
" transform="scale(0.015625)"/>
     <path id="NotoSansSC-Thin-26dc" d="M 3270 3750 
L 5894 3750 
L 5894 3565 
L 3270 3565 
L 3270 3750 
z
M 5818 3750 
L 6003 3750 
Q 6003 3750 6003 3724 
Q 6003 3699 6003 3667 
Q 6003 3635 6003 3610 
Q 5965 2605 5926 1917 
Q 5888 1229 5840 797 
Q 5792 365 5731 128 
Q 5670 -109 5581 -205 
Q 5504 -294 5414 -329 
Q 5325 -365 5184 -371 
Q 5043 -371 4787 -364 
Q 4531 -358 4269 -333 
Q 4262 -288 4249 -237 
Q 4237 -186 4205 -141 
Q 4518 -166 4784 -172 
Q 5050 -179 5152 -179 
Q 5242 -186 5306 -170 
Q 5370 -154 5414 -102 
Q 5491 -19 5548 214 
Q 5606 448 5654 886 
Q 5702 1325 5740 2013 
Q 5779 2701 5818 3699 
L 5818 3750 
z
M 4403 5210 
L 4595 5210 
Q 4589 4621 4569 3987 
Q 4550 3354 4480 2720 
Q 4410 2086 4266 1500 
Q 4122 915 3862 419 
Q 3603 -77 3206 -442 
Q 3187 -422 3155 -403 
Q 3123 -384 3091 -365 
Q 3059 -346 3034 -339 
Q 3430 6 3683 496 
Q 3936 986 4083 1568 
Q 4230 2150 4297 2774 
Q 4365 3398 4384 4022 
Q 4403 4646 4403 5210 
z
M 627 4762 
L 3059 4762 
L 3059 4576 
L 627 4576 
L 627 4762 
z
M 384 3200 
L 3181 3200 
L 3181 3014 
L 384 3014 
L 384 3200 
z
M 2310 2272 
L 2483 2317 
Q 2611 2016 2745 1667 
Q 2880 1318 2998 995 
Q 3117 672 3181 448 
L 3002 371 
Q 2938 608 2822 934 
Q 2707 1261 2572 1613 
Q 2438 1965 2310 2272 
z
M 563 429 
L 563 595 
L 723 698 
L 2848 1094 
Q 2854 1056 2860 1001 
Q 2867 947 2874 915 
Q 2272 800 1872 723 
Q 1472 646 1225 598 
Q 979 550 848 518 
Q 717 486 656 467 
Q 595 448 563 429 
z
M 563 435 
Q 557 461 547 499 
Q 538 538 525 576 
Q 512 614 499 640 
Q 563 653 624 784 
Q 685 915 768 1107 
Q 806 1197 883 1408 
Q 960 1619 1056 1904 
Q 1152 2189 1241 2515 
Q 1331 2842 1395 3162 
L 1581 3078 
Q 1478 2643 1344 2192 
Q 1210 1741 1056 1328 
Q 902 915 736 576 
L 736 570 
Q 736 570 710 557 
Q 685 544 649 525 
Q 614 506 588 483 
Q 563 461 563 435 
z
" transform="scale(0.015625)"/>
     <path id="NotoSansSC-Thin-65be" d="M 1350 4250 
L 1350 3757 
L 5056 3757 
L 5056 4250 
L 1350 4250 
z
M 1350 4915 
L 1350 4435 
L 5056 4435 
L 5056 4915 
L 1350 4915 
z
M 1165 5101 
L 5242 5101 
L 5242 3571 
L 1165 3571 
L 1165 5101 
z
M 1235 1779 
L 1235 1274 
L 5267 1274 
L 5267 1779 
L 1235 1779 
z
M 1235 2464 
L 1235 1971 
L 5267 1971 
L 5267 2464 
L 1235 2464 
z
M 1050 2656 
L 5459 2656 
L 5459 1088 
L 1050 1088 
L 1050 2656 
z
M 3091 2573 
L 3283 2573 
L 3283 -192 
L 3091 -192 
L 3091 2573 
z
M 378 3226 
L 6029 3226 
L 6029 3034 
L 378 3034 
L 378 3226 
z
M 819 595 
L 5619 595 
L 5619 410 
L 819 410 
L 819 595 
z
M 320 -102 
L 6086 -102 
L 6086 -288 
L 320 -288 
L 320 -102 
z
" transform="scale(0.015625)"/>
     <path id="NotoSansSC-Thin-2811" d="M 947 4602 
L 5485 4602 
L 5485 -211 
L 5293 -211 
L 5293 4416 
L 1139 4416 
L 1139 -262 
L 947 -262 
L 947 4602 
z
M 1011 506 
L 5478 506 
L 5478 314 
L 1011 314 
L 1011 506 
z
" transform="scale(0.015625)"/>
     <path id="NotoSansSC-Thin-33a1" d="M 2406 4947 
L 5254 4947 
L 5254 4762 
L 2406 4762 
L 2406 4947 
z
M 5229 4947 
L 5267 4947 
L 5312 4960 
L 5453 4877 
Q 5210 4435 4835 4057 
Q 4461 3680 4013 3366 
Q 3565 3053 3088 2809 
Q 2611 2566 2157 2400 
Q 2144 2426 2125 2451 
Q 2106 2477 2083 2502 
Q 2061 2528 2035 2547 
Q 2477 2701 2941 2937 
Q 3405 3174 3843 3478 
Q 4282 3782 4640 4140 
Q 4998 4499 5229 4902 
L 5229 4947 
z
M 1958 -58 
L 6086 -58 
L 6086 -243 
L 1958 -243 
L 1958 -58 
z
M 3936 1971 
L 4122 1971 
L 4122 -173 
L 3936 -173 
L 3936 1971 
z
M 2394 2093 
L 5670 2093 
L 5670 1901 
L 2394 1901 
L 2394 2093 
z
M 1818 3878 
L 2003 3821 
Q 1818 3456 1571 3104 
Q 1325 2752 1049 2448 
Q 774 2144 493 1901 
Q 480 1920 451 1945 
Q 422 1971 390 1996 
Q 358 2022 333 2042 
Q 621 2266 896 2560 
Q 1171 2854 1408 3190 
Q 1645 3526 1818 3878 
z
M 1760 5293 
L 1946 5229 
Q 1792 4973 1568 4707 
Q 1344 4442 1091 4202 
Q 838 3962 576 3776 
Q 563 3802 540 3827 
Q 518 3853 496 3878 
Q 474 3904 448 3917 
Q 698 4096 947 4326 
Q 1197 4557 1411 4806 
Q 1626 5056 1760 5293 
z
M 1306 2918 
L 1491 3104 
L 1491 3098 
L 1491 -448 
L 1306 -448 
L 1306 2918 
z
M 3981 3411 
L 4083 3565 
Q 4429 3430 4800 3264 
Q 5171 3098 5507 2928 
Q 5843 2758 6061 2624 
L 5952 2445 
Q 5734 2586 5398 2758 
Q 5062 2931 4691 3104 
Q 4320 3277 3981 3411 
z
" transform="scale(0.015625)"/>
     <path id="NotoSansSC-Thin-476" d="M 1248 1536 
Q 1504 1536 1709 1411 
Q 1914 1286 2038 1081 
Q 2163 877 2163 621 
Q 2163 371 2038 163 
Q 1914 -45 1709 -169 
Q 1504 -294 1248 -294 
Q 998 -294 790 -169 
Q 582 -45 457 163 
Q 333 371 333 621 
Q 333 877 457 1081 
Q 582 1286 790 1411 
Q 998 1536 1248 1536 
z
M 1248 -102 
Q 1549 -102 1760 109 
Q 1971 320 1971 621 
Q 1971 819 1875 982 
Q 1779 1146 1616 1245 
Q 1453 1344 1248 1344 
Q 1050 1344 886 1245 
Q 723 1146 624 982 
Q 525 819 525 621 
Q 525 422 624 256 
Q 723 90 886 -6 
Q 1050 -102 1248 -102 
z
" transform="scale(0.015625)"/>
    </defs>
    <use xlink:href="#NotoSansSC-Thin-3b79"/>
    <use xlink:href="#NotoSansSC-Thin-429d" transform="translate(100 0)"/>
    <use xlink:href="#NotoSansSC-Thin-775c" transform="translate(200 0)"/>
    <use xlink:href="#NotoSansSC-Thin-3b40" transform="translate(300 0)"/>
    <use xlink:href="#NotoSansSC-Thin-399e" transform="translate(400 0)"/>
    <use xlink:href="#NotoSansSC-Thin-5f93" transform="translate(500 0)"/>
    <use xlink:href="#NotoSansSC-Thin-4f97" transform="translate(600 0)"/>
    <use xlink:href="#NotoSansSC-Thin-7443" transform="translate(700 0)"/>
    <use xlink:href="#NotoSansSC-Thin-12" transform="translate(800 0)"/>
    <use xlink:href="#NotoSansSC-Thin-10" transform="translate(852.09375 0)"/>
    <use xlink:href="#NotoSansSC-Thin-2f" transform="translate(891.6875 0)"/>
    <use xlink:href="#NotoSansSC-Thin-1" transform="translate(961.28125 0)"/>
    <use xlink:href="#NotoSansSC-Thin-4f49" transform="translate(983.28125 0)"/>
    <use xlink:href="#NotoSansSC-Thin-3b57" transform="translate(1083.28125 0)"/>
    <use xlink:href="#NotoSansSC-Thin-475" transform="translate(1183.28125 0)"/>
    <use xlink:href="#NotoSansSC-Thin-12" transform="translate(1283.28125 0)"/>
    <use xlink:href="#NotoSansSC-Thin-13" transform="translate(1335.375 0)"/>
    <use xlink:href="#NotoSansSC-Thin-1" transform="translate(1387.46875 0)"/>
    <use xlink:href="#NotoSansSC-Thin-2262" transform="translate(1409.46875 0)"/>
    <use xlink:href="#NotoSansSC-Thin-3b1d" transform="translate(1509.46875 0)"/>
    <use xlink:href="#NotoSansSC-Thin-26dc" transform="translate(1609.46875 0)"/>
    <use xlink:href="#NotoSansSC-Thin-65be" transform="translate(1709.46875 0)"/>
    <use xlink:href="#NotoSansSC-Thin-475" transform="translate(1809.46875 0)"/>
    <use xlink:href="#NotoSansSC-Thin-3fed" transform="translate(1909.46875 0)"/>
    <use xlink:href="#NotoSansSC-Thin-2811" transform="translate(2009.46875 0)"/>
    <use xlink:href="#NotoSansSC-Thin-33a1" transform="translate(2109.46875 0)"/>
    <use xlink:href="#NotoSansSC-Thin-476" transform="translate(2209.46875 0)"/>
   </g>
  </g>
 </g>
 <defs>
  <clipPath id="pf8d5ca4733">
   <rect x="58.7" y="52.112" width="583.2" height="169.632"/>
  </clipPath>
 </defs>
</svg>
